<?xml version="1.0" encoding="utf-8"?>
<!-- Generator: Adobe Illustrator 25.3.1, SVG Export Plug-In . SVG Version: 6.00 Build 0)  -->
<svg version="1.1" id="Layer_1" xmlns="http://www.w3.org/2000/svg" xmlns:xlink="http://www.w3.org/1999/xlink" x="0px" y="0px"
	 viewBox="0 0 1920 1080" style="enable-background:new 0 0 1920 1080;" xml:space="preserve">
<style type="text/css">
	.st0{font-family:'Roboto-Light';}
	.st1{font-size:56.6929px;}
	.st2{fill:none;}
	.st3{fill:#020303;}
	.st4{fill:#030404;}
	.st5{fill:#040404;}
	.st6{fill:#73B3D1;}
	.st7{fill:#080808;}
	.st8{fill:#5A6C75;}
	.st9{fill:#3E5966;}
	.st10{fill:#293237;}
	.st11{fill:#212121;}
	.st12{fill:#1A1C1D;}
	.st13{fill:#FEFEFE;}
	.st14{fill:#73B3D2;}
	.st15{fill:#FDFDFD;}
	.st16{fill:#73B2D0;}
	.st17{fill:#73B2D1;}
	.st18{fill:#72B1CF;}
	.st19{fill:#72B1D0;}
	.st20{fill:#72B2D0;}
	.st21{fill:#898989;}
	.st22{fill:#3D5E6F;}
	.st23{fill:#72B0CE;}
	.st24{fill:#44687B;}
	.st25{fill:#406273;}
	.st26{fill:#3E6071;}
	.st27{fill:#446A7C;}
	.st28{fill:#416476;}
	.st29{fill:#6FACC9;}
	.st30{fill:#8B8B8B;}
	.st31{fill:#406375;}
	.st32{fill:#939393;}
	.st33{fill:#70AECC;}
	.st34{fill:#8C8C8C;}
	.st35{fill:#EEEEEE;}
	.st36{fill:#649BB5;}
	.st37{fill:#456A7D;}
	.st38{fill:#7F7F7F;}
	.st39{fill:#436779;}
	.st40{fill:#416576;}
	.st41{fill:#406374;}
	.st42{fill:#E1E1E1;}
	.st43{fill:#416475;}
	.st44{fill:#3D5F70;}
	.st45{fill:#3C5D6D;}
	.st46{fill:#3F6273;}
	.st47{fill:#476E81;}
	.st48{fill:#828282;}
	.st49{fill:#3E5F70;}
	.st50{fill:#3B5B6B;}
	.st51{fill:#72B0CF;}
	.st52{fill:#3F6172;}
	.st53{fill:#3D5F6F;}
	.st54{fill:#4E4E4E;}
	.st55{fill:#71B0CE;}
	.st56{fill:#878787;}
	.st57{fill:#6DA8C5;}
	.st58{fill:#C8C8C8;}
	.st59{fill:#3A5969;}
	.st60{fill:#858585;}
	.st61{fill:#F1F1F1;}
	.st62{fill:#C7C7C7;}
	.st63{fill:#ACACAC;}
	.st64{fill:#929292;}
	.st65{fill:#74B3D2;}
	.st66{fill:#304956;}
	.st67{fill:#385665;}
	.st68{fill:#6FACCA;}
	.st69{fill:#426678;}
	.st70{fill:#466C7F;}
	.st71{fill:#6095AE;}
	.st72{fill:#365362;}
	.st73{fill:#4B7589;}
	.st74{fill:#3B5C6C;}
	.st75{fill:#6EABC8;}
	.st76{fill:#4C768B;}
	.st77{fill:#659CB7;}
	.st78{fill:#8A8A8A;}
	.st79{fill:#838383;}
	.st80{fill:#919191;}
	.st81{fill:#8E8E8E;}
	.st82{fill:#5E686E;}
	.st83{fill:#979A9C;}
	.st84{fill:#8F8F8F;}
	.st85{fill:#787878;}
	.st86{fill:#969696;}
	.st87{fill:#7E7E7E;}
	.st88{fill:#F3F3F3;}
	.st89{fill:#808080;}
	.st90{fill:#395868;}
	.st91{fill:#3D5E6E;}
	.st92{fill:#868686;}
	.st93{fill:#456B7D;}
	.st94{fill:#3A5A6A;}
	.st95{fill:#395968;}
	.st96{fill:#3C5C6C;}
	.st97{fill:#476D81;}
	.st98{fill:#456A7C;}
	.st99{fill:#426677;}
	.st100{fill:#7A7A7A;}
	.st101{fill:#848484;}
	.st102{fill:#8D8D8D;}
	.st103{fill:#696969;}
	.st104{fill:#9C9C9C;}
	.st105{fill:#999999;}
	.st106{fill:none;stroke:#000000;stroke-width:2.8346;stroke-miterlimit:10;}
</style>
<text transform="matrix(1 0 0 1 1315.0784 303.7327)"><tspan x="0" y="0" class="st0 st1">Brazos largos </tspan><tspan x="101.6" y="68" class="st0 st1">de un </tspan><tspan x="44.2" y="136.1" class="st0 st1">Iguanodon</tspan></text>
<rect x="702.9" y="625.4" class="st2" width="597.7" height="197.6"/>
<text transform="matrix(1 0 0 1 746.1805 667.9246)"><tspan x="0" y="0" class="st0 st1">Forma general de un </tspan><tspan x="24.3" y="68" class="st0 st1">modelo antiguo de </tspan><tspan x="54.4" y="136.1" class="st0 st1">Tiranosaurio rex</tspan></text>
<rect x="222.9" y="250.4" class="st2" width="504.3" height="193.2"/>
<text transform="matrix(1 0 0 1 391.9297 292.9144)"><tspan x="0" y="0" class="st0 st1">Placas </tspan><tspan x="-98.2" y="68" class="st0 st1">dorsales de un </tspan><tspan x="-79.6" y="136.1" class="st0 st1">Estegosaurio</tspan></text>
<g>
	<path class="st3" d="M543.9,567.1c4.1,11.7,8.7,23.5-0.1,36.5c9.7-1.7,11.2-9.8,16.1-14.3c3.6-3.4,5.4-10.6,10.6-9.7
		c5.1,0.9,5.3,7.9,6.5,12.6c2,8.2,4.8,13.6,14.7,9.2c4.9-2.1,8.5-0.8,7.9,5.8c-1.7,17.3-1.5,35-18.6,46.5c-10.9,7.3,2.3,8,4.6,12.5
		c1-14.6,10.8-22.7,20.6-30.9c4.2-3.5,7-4.3,7.8,2.5c0.5,4.5,1.8,7.9,7.7,5.9c4.1-1.4,4.3,1.2,4.1,4.4c-0.4,9-2.8,17.1-9.4,23.8
		c-2.8,2.8-5.2,6.1-7.7,9.2c2.8,2.7,5.9,3.8,10.1,4.9c0.3-6.7,0.5-13.4,6-18.1c2.3-1.9,3.2-6.5,6.3-6c4.4,0.7,1.5,5.9,2.8,7.7
		c13.3-3.5,6,9.1,10.3,12.1c3.3-2.1,2.1-7.7,6.7-9.1c4,1.9,4.9,7.1,4.3,9.4c-2.6,10.1,3.6,8.9,9.9,9.6c9.7,1.1,19.3,3.1,28.9,4.9
		c6.7,1.3,14.3,3.1,14.3,11.6c0,7.7-7.1,9.9-13.5,11.3c-28.2,5.9-56.4,11.6-84.6,17.4c-1.6,0.3-3.3,0.6-5,0.9
		c-7.4,1.3-10,3.9-4.3,10.8c4.5,5.4,7.4,12.3,13.4,16.2c8.3,5.5,10.9,13.5,10.7,22.5c-0.2,7.3,1.6,13,7.1,18c2.6,2.4,4.3,6,5.6,9.4
		c1.1,2.7,0.5,5.4-3.5,5.5c-13.1,0.2-24.5-5-35.6-11.3c-3.3-1.9-3.9-4.8-2-8.6c2.8-5.7,0.5-10.4-4.2-14.2
		c-6.3-5-11.9-10.6-19.9-13.5c-6.8-2.4-11.2-8.3-14.1-15.1c-1.3-3.2-1.8-7.5-7.3-6.6c-5,0.9-7.8,3.6-8.7,8.5
		c-2.3,12,0.8,24.1-1.5,36.2c-0.8,4.1,4.5,6.3,7.8,8.5c6.2,4.1,13,7.3,18.3,12.5c1.5,1.5,2.7,3.1,2,5.3c-0.7,2-2.6,2.3-4.1,2
		c-11.3-2.1-22.8,1.4-34.2-1.5c-4.1-1-6.8-2.9-8.3-6.4c-6.9-15.7-15-31-17.6-48.1c-0.8-5.5-3.6-7.1-8.2-7.9c-8-1.4-15.8-3.1-24-3.3
		c-13.7-0.4-13.1-0.6-15,12.3c-2.9,20.1,1.8,35.9,21.4,45.3c3.1,1.5,6.4,3.7,7.9,9.4c-13.5,0-26.7,1.5-39.3-0.5
		c-10.2-1.6-15-12.2-16.3-21.2c-1.6-11.5-5.8-21.2-12.2-30.4c-1.1-1.6-2.5-3.6-2.5-5.4c-0.6-14.7-11.9-12.8-21.3-14.3
		c-3.8-0.6-4.5,2.1-6,4.2c-2.7,3.9-5.5,8.9-10.4,8.9c-13.8-0.1-18.8,11.7-27.2,18.8c-5.1,4.3-2.6,18,3.2,24c0.9,1,2.1,1.7,3.1,2.5
		c4.1,3.2,9.3,7.3,6.9,12.2c-2.2,4.3-7.8-0.9-12-0.6c-1.5,0.1-3.3-1.9-4.7-1.5c-13.1,3.5-19.3-3.3-23.4-14.5
		c-3.7-10.1-5.5-18.7,1.3-29.3c10.6-16.6,16.7-36,32.4-50.3c-8.6-4.8-15.2-10.3-19.1-18.4c-2-4.2-5.6-2.8-8.8-2.5
		c-41.7,4.2-83.4,5.4-125.3,3.4c-33-1.6-63.1-12.4-94.3-28.1c12.5-2,22.7,3.1,33.7,1.7c-1.2-6.7-5.8-11.7-8.2-17.6
		c-1.6-4.1-4-7.8-5.3-12c-1-3.3-3.7-8.4,0.2-10.1c4.5-2,5.3,4.1,6.6,6.9c6.2,13.4,16.2,23.5,27.3,33.8c8.9-19.7-11.4-31.7-11-49.4
		c6.3,1.7,7.7,8.2,12.2,11.3c2.4-4.8-3.3-8.9,0-14.7c13.3,14.7,8.8,37.8,27,49.6c0.5-15.3,1.9-30.7-2-45.9c4.8-1.4,5.2,2.1,6.1,4.2
		c5.2,11.8,8.6,24.1,8.6,37.1c0,2.1-0.9,5.2,3.2,4.6c3.6-0.6,2.7-2.6,1.9-5.1c-1.9-5.8,1-11.1,2-16.6c0.9-5.2,3.7-7.3,8.5-5.1
		c6.8,3.1,8.8-0.7,10.4-6.1c1.2-3.9,3.1-7.5,4-11.4c1.8-8.2,5.4-13.5,14.9-11.6c6.2,1.2,6-3.8,6.8-7.5c3.7-18.2,3.7-18.2,22.5-17.4
		c2.3,0.1,4.7,0,7.8,0c-1.1-7.7-2.2-15.1-3.3-22.5c-0.9-6,1.2-9.3,7.7-10.3c7.8-1.2,15.4-2.2,22.6,2c5.7,3.4,7.5,0.6,8.4-4.7
		c0.9-5-1.9-9.2-2.3-13.8c-0.4-3.9-3.4-8,0.1-11.5c4.1-4.1,8.4-0.2,12.2,1.1c10.2,3.4,20.2,7.4,30.1,11.5c4.5,1.9,6.1,1.5,7.1-3.7
		c1.9-9.6,4.9-18.9,7.1-28.4c1.3-5.6,3.3-8,8.5-3.3c1.5,1.3,3.3,2.3,5.1,3.3c6.9,4.1,13.5,12.3,20.7,11.4c7-0.9,9.2-11.4,13.3-17.7
		c3.7-5.8,6.8-5.1,11.2-1.3c12.6,10.7,25.9,20.8,30.7,39.9c5.9-8.5,10.3-15.4,15.2-21.9c6.9-9.3,9-9.2,14.9,0.4
		c4.6,7.4,8.8,15.1,14.9,25.6c4-5.2,7.1-10,11-14.1c3.8-4.1,7.6-3.9,9.9,2c2.3,5.9,4.9,11.8,7.4,17.6
		C542.7,562.3,543.8,564.5,543.9,567.1z"/>
	<path class="st4" d="M822,304.6c-8.3-2.8-15.7,0-23.5-6c-8-6.2-10-13.3-9.1-21.5c1.1-10,11-18.4,20-18.3c7.1,0.1,14.1,0.9,21.2,1.4
		c1.6,0.1,3.9,1,4.9,0.2c11.3-9,22.8-2.9,31.9,2.2c10.3,5.7,22.8,11.3,24.4,26.5c1.3,11.7,11.5,16.2,20.5,20.4
		c11.2,5.2,22.3,10.4,34.5,13.5c17.3,4.4,30.7,16.5,44.6,27.1c6.5,4.9,12.9,9.6,20.5,12.7c17.9,7.2,29.8,20.2,37,37.8
		c1.4,3.4,2.5,7.4,5,9.8c19.5,18.9,23.2,44,27.9,68.8c4.2,22.2,9.8,44.1,20.5,64.1c8.9,16.6,17.5,20,35.8,16.7
		c4.3-0.8,10.8-4.4,12.6,0.8c1.9,5.4-5.1,7.8-9.3,10.3c-18.9,11.1-37,10.1-54.4-3.8c-8.2-6.5-16.1-13.3-22.9-22.8
		c-3.6,8.8-4.8,16.8-3.7,25c0.8,6.2-0.9,11.6-2.6,17.5c-3.2,10.8-10.9,9.9-18.9,9.8c-0.9,0-1.8-1.2-2.7-1.2
		c-10.6,0.6-21.2,1.9-31.7-3.4c1.4-7.2,5.9-12.3,14.3-13.2c9.1-0.9,16.1-5.3,17.1-14.3c1.2-10,5.3-20.8-6.3-29.1
		c-14.8-10.5-27.7-23.6-42.5-34.2c-7.1-5.1-6.3-14.5-8.8-21.9c-2.3-7.2-4.4-11.2-12.4-5.6c-3.4,2.4-8.1,3-12.3,4.3
		c-7.5,2.3-10.2,7.2-5.4,13.6c6,8.1,6.2,16.8,4.7,26c-1.7,10.7-2.5,21.4,0.2,32.1c0.1,0.3,0.3,0.7,0.2,1
		c-4.2,12.1-4.8,25.6-13.4,36.5c-4.1-3.6-2.6-8-5.8-12.3c-3.6,20.1-18.7,18.7-32.6,18c-8.9-0.4-17.4,5-26.7,0.5
		c-3.3-1.6-4.2-1.8-2.5-5.2c3.7-7.3,9.3-11,17.6-11.4c22.4-1,43.1-21.1,33.8-46.6c-5.5-15.1-9.1-30.8-12.6-46.5
		c-1.3-6.1,0.3-11.3,3-16.4c5.9-11,11.6-22,17.8-32.8c2.2-3.8,2-5.8-1.8-8c-13.5-8-24.4-18.9-34.5-30.9c-3.6-4.3-7-9.3-14.3-3.2
		c-4.7,3.9-11.9,1-17.8,0c-5.8-1-10.9-1-14.2,4.4c-2.3,3.8-5.5,4-8.3,1.9c-3.7-2.7-0.1-5.4,1.3-7.7c3.1-5.3,6.9-10.5,13.9-10.3
		c3.7,0.1,4.2-2.2,5.6-4.4c1.8-2.8,3.7-6.4,6.4-7.6c9.9-4.1,8.7-9.2,2.7-15.7c-1.8-2-3.7-4.1-4.7-6.5c-5.1-12.1-12-15.4-25.8-11.2
		c-8.6,2.6-20-2.3-29.5-5.7c-5.3-1.9-8.1-8.1-7.1-14.4c0.8-5.4,5.5-5.7,9.7-6.9C816.5,307.7,819.2,305.9,822,304.6z"/>
	<path class="st5" d="M1546,633.6c6.9,6.9,14.2,13.4,20.6,20.7c14.9,17.2,32.2,31.6,51.6,43.5c13.8,8.5,28,16.4,41,25.9
		c33.2,24.3,71.6,31.7,111.2,35.4c9.4,0.9,18.8,1.6,28.2,2.2c4.2,0.3,9.6,0.7,10,4.9c0.5,5.4-5.6,6-9.7,6.9
		c-14.6,3.2-29.6,2.5-44.4,2.7c-48.4,0.5-96.3-2-142.8-17.5c-23.6-7.9-47.9-13.9-72.5-18.2c-0.7-0.1-1.3-0.5-1.9-0.5
		c-6.6-0.4-15.6-3.9-19.2,0.9c-3.9,5.3,5,9.6,8,14.5c2.2,3.6,3.2,7.2,3.2,11.4c0.1,5.7,0.2,11.5,1.1,17.1
		c2.2,13.3-4.4,26.3-16.7,32.1c-2,0.9-3.9,1.6-4.6-1.4c-1.1-4.2-4-2.3-6.5-2.1c-2.2,0.2-3.3,5.7-6.3,1.8c-2.1-2.7-2.7-6.1-1.6-9.6
		c1.3-4.3,4-7.7,6.5-11.3c5.7-8.2,6.2-15.7-1.5-23.5c-10.4-10.6-20.2-21.7-30.2-32.7c-7-7.7-17.4-8.3-26.3-12
		c-3.7-1.5-3.2,2.3-3,4.4c0.6,10,2.6,20,3.4,29.6c1,12.2-0.6,26.4-8.4,37.4c-3.3,4.6-9.4,7.3-14.1,11c-6.5,4.9-10.7,2.4-12.3-6.3
		c-0.9,0.5-1.7,1-2.7,1.4c-3.6,1.3-6.9,8.1-10.5,3.6c-2.8-3.6-1-10.1,2.9-13.9c3.6-3.5,8-6.1,12.2-8.9c10.7-7.2,12.3-11.1,8-23.7
		c-3.6-10.8-7.9-21.5-12.2-32c-3.6-8.8-7-17.5-6.5-27.2c0.1-1.3,0.1-2.9-0.6-3.9c-14.1-20.9-27.8-42.1-45.7-60.1
		c-2.3-2.3-4.1-1.1-6.3-0.6c-5.2,1.2-8.4,5.3-12.4,8.3c-2.8-10.8,7-11.7,12.6-15.9c6.3-4.8,9.2,1,12.9,4.1
		c12.7,17.4,27.4,33.3,38.8,51.6c3.8,6.1,6.7,12.2,7.5,19.5c1.6,15.3,9.2,28.8,14.3,43c9.9,27.3,8.7,31.8-14.9,47.8
		c1.8,1,3.8,0.1,5.6,0.1c3.5,0,3.7,8.1,8.7,3.4c5.5-5.2,11.7-8.3,14-18c4.2-17.8-3-34.5-0.9-51.7c1.4-11,1.4-11.1,11.6-9.4
		c2.4,0.8,4.8,1.7,7.2,2.5c4.6,1.6,9,3.5,13.6,5.3c14.2,9.4,23.5,23.6,35.1,35.6c3.7,3.8,8,7.5,9.6,12.8c2.1,7,1.4,13.9-2.9,20.2
		c-2,3-5,5.5-5.1,9.6c19.2-0.4,21.1-4.4,21.2-23.3c0.1-14.6-6.9-25.3-12.7-37.2c-0.3-2-0.2-4,0.4-6c0.4-1,0.9-1.9,1.6-2.6
		c5.3-4.9,11.9-2.9,18-3.1c27,2.9,53,10.2,78.7,18.3c39.3,12.5,79.4,18.1,120.5,18c16.2,0,32.4,0.1,48.6,0c5.3,0,10.7,0.2,16.9-2.1
		c0.2-0.1-1.3-1.7-0.8-0.5c0.2,0.5,0,0.7-0.5,0.9c-10.8,3.1-21.4-0.5-32.1-1.3c-14.1-1-28-3.8-41.9-6.7
		c-18.7-3.9-36.3-10.5-52.1-21.3c-17.5-11.9-37.6-19.7-53.6-33.9c-2.3-2-4.8-3.7-7.5-5.1c-25.6-14-42.3-37.7-62.6-57.5
		c-1.4-1.4-2.3-3.3-2.2-5.4C1543.4,634.1,1544.1,632.9,1546,633.6z"/>
	<path class="st6" d="M1359,631.5c-4.8,5.9-2.7-5.8-6.8-2.6c-6,4.7-16.4,4.4-17.1,15.1c0.3,2.2,0.5,4.3-1.7,5.7
		c-2.5,2.2-0.9,12.6-9.1,4c-2.4-2.5-5,5.5-9.5,4.8c-4.6-3.8-6.8-10.7-14.2-10.7c-0.5-0.9-0.6-1.7-0.3-2.7c4-6.5,9.9-11.2,15.3-16.5
		c2.5-2.5,2-7.8,7.2-7.7c11.1,0.3,17.7-8.7,26.7-12.9c2.9-1.3,1.4-3.9-1-5.4c-2.6-1.6-5.5-2.6-8-4.3c-5.6-4.3-11.5-8.3-14.1-15.3
		c-1.9-10.3,0.9-15.4,11.6-21.3c12-6.6,18-6.6,25.2-0.1c1.2,2.4,2.5,4.9,2.7,7.5c1.3,11.2,6.6,19.9,15.2,27.1
		c5.7,4.7,5.9,10.9,2.8,17.3C1377.5,622.2,1369.5,628.5,1359,631.5z"/>
	<path class="st7" d="M1436.4,554.8c32.6,16.9,64.7,34.6,91.4,60.3c0.7,0.7,1.3,1.5,1.9,2.3c0.7,1.9-0.4,2.6-2,3.2
		c-4.6-0.1-6.9-3.7-9.9-6.2c-26.6-21.1-54.5-40-85.9-53.3c-0.9-0.3-1.8-0.8-2.7-1.2c-24.7-12.2-47.4-28.8-75.4-33.7
		c-1.4-0.5-2.7-1.1-4-1.9c-9.6-8.9-12.6-21.3-17.2-32.7c-3.6-9-9.2-15.6-18-19.5c-15.1-6.6-47.8,2.4-57.3,16c-1.4,2-5.2,3.6-3.8,6.1
		c1.7,3.2,5.5,3.5,9.1,2.8c5.5-1.1,10.7,0.1,15.8,2.2c2.7,1.6,4.3,4.3,6,6.8c4.6,14.5,15.9,25.3,21.8,39.3c2.5,5.9,5.8,11.4,5.2,18
		c-1.3,14.2,3.7,25.5,14.6,34.6c4.1,3.4,8.2,7,10.6,12c0.2,6-0.2,11.1-8,5.7c2.2-2,3.4-3.4,0.1-6.1c-5.2-4.2-9.7-9.2-14.4-14.1
		c-7.2-7.5-10.2-16.4-9.2-26.8c0.8-8.3-2.8-14.9-5.8-22.5c-5.2-12.8-17-21.5-19.6-35.7c-1.5-8-8.9-8.5-15.4-6.7
		c-7.6,2-13.3,0.7-17-6.5c-3.7-7.3,0.3-12.5,5.7-16.3c14.5-10.2,30.5-17.3,48.3-18.6c15.1-1.1,30.6,9.9,36.4,24
		c0.6,1.6,1.3,3.1,1.8,4.7c5.6,18.2,14.6,30,36,34.8c20,4.5,38.1,17.8,57,27.2C1433.5,553.9,1435.5,553.1,1436.4,554.8z"/>
	<path class="st8" d="M1328.3,615.4c5,1,7.6-0.8,6.9-6.1c4.3-3.9,4.3-3.9,10.6-2.7c-2.3-4-7.2-2.3-9.2-5.3c-0.3-3,1.9-4.2,4.1-5.3
		c4.6,3.5,13.3,3.3,13.5,9.9c0.1,6.2-8.2,6.6-12.7,9.8c-3.8,2.7-7.8,5-11.5,7.8c-3.1,2.4-5.4,2.2-7.1-1.4c-1-1.1-1-2.1-0.1-3.3
		C1324.2,616.9,1325.8,615.4,1328.3,615.4z"/>
	<path class="st9" d="M1308.8,660.2c0.6-4.9,0.6-4.9-8.2-2c0.2-3.1,5.7-8.2-2.4-8.6c-1.2-0.1,0.3-3.2,2.5-3.8
		c1.8,2.1,3.5,0.8,5.2-0.2c3.2-1.8,6-2.6,4.7,2.9c-1.1,4.4,6.9,4.8,4.3,9.8c1,0.3,1.7,0.9,2.1,1.8
		C1314.2,664.1,1311.5,661.2,1308.8,660.2z"/>
	<path class="st10" d="M1316.9,660.1c-0.7-0.6-1.4-1.2-2.1-1.8c2.4-2.3,4.9-4.5,7.3-6.8c1.3-1.2,3.1-2.6,4.1-0.6
		c5.7,10.7,3.6-1.4,5.4-1.8c0.3-0.1,0.7-0.2,0.9-0.1c0.3,0.1,0.5,0.4,0.8,0.6c-0.1,1.3-0.1,2.7-0.5,3.9c-0.9,2.9,0.3,7.6-3.6,8.2
		c-3.7,0.6-2.3-5-5.4-6.5C1321.7,656.8,1319.3,658.5,1316.9,660.1z"/>
	<path class="st11" d="M1527.3,619.7c0.8-0.8,1.6-1.6,2.4-2.3c6.1,4.8,11.5,10.2,16.3,16.3c-0.8,0.8-1.5,1.6-2.3,2.3
		C1535.2,633.6,1529.8,628.1,1527.3,619.7z"/>
	<path class="st9" d="M1300.6,645.9c-0.2-5.3,6.1-6.6,7-11.1c-3.1-3.5-8.7,2.2-11-3.3c6.4,0.3,13.1,2.2,18.2-3.7
		c0.9,0.3,1.5,0.8,1.7,1.7C1311.5,635.2,1307.2,641.7,1300.6,645.9z"/>
	<path class="st12" d="M1316.5,629.5c-0.6-0.6-1.2-1.1-1.7-1.7c3.5-5-3.2-9-1.6-14c4.9-1.5,5.1,6,9.6,5c0,1.1,0.1,2.2,0.1,3.3
		C1318.9,622.9,1318.2,626.6,1316.5,629.5z"/>
	<path class="st13" d="M648.1,725c-17.4,5.2-35.9,5.3-53,11.8c-6,3.3-12.2,5.2-18.9,2.1c-4.1-1.9-5.5-4-0.5-6.6
		c6,2.5,7-3.8,10.4-5.8c-3.3,1.9-4.3,7.6-9.8,5.9c-1.4-3.2,1.9-5.4,1.7-8.3c0.5-1.4-1.8,0.3-0.4,0.1c0.4-0.1,0.7,0.4,0.2,0.9
		c-8.5,7.1-10.9,21.4-25.3,21.6c-9.8,0.9-13.7,6.8-14.4,16.1c-0.8,10.6,1.1,21.3-1.1,32c-1.1,5.3,3.5,8.4,7.4,11
		c6.2,4.2,12.5,8.2,18.6,13.2c-9.3-2.5-18.3,1.5-27.3,0.1c-3.5-0.5-7.6-0.3-9.3-4.6c-5.9-14.9-14.4-28.7-16.6-45
		c-1.5-5.2,1.2-9.9,2.3-14.7c1.1-4.5-4.8-5.8-3.1-10.8c1.5-4.5,3.2-9.9,2.5-14.6c-1.4-9.8,4.6-13.2,11.7-16.3
		c4.7-2.1,9.7-1.4,14.7-1.6c-5,0.4-10.1-0.7-14.8,1.5c-6.6,3-13,6.2-11.8,15.3c0.3,2.1,0.3,4.5-2.4,4.6c-2.2,0.1-3.3-1.9-3.6-4.2
		c-1.1-7.9,1.6-14.6,6.5-20.5c2.4-2.9,5.2-5.3,6.4-6.6c-9.4,6.8-15,17.5-13.6,31.7c-7.2-10-7.2-11.7-1.3-24.1
		c2.9-3.2,4.5-7.2,7.7-10.8c-3.3,2.9-4.3,7-7.2,9.5c-6,10.4-7.4,20,2.8,29.3c5.2,4.7,3.2,15.7-2.6,20.1c-8-1.5-16-3-24-4.5
		c-2-7.2-1.3-15.4-6.8-21.3c-5.3-5.8-8.5-12.1-7.5-20.1c-0.9,7.6,1.4,14.1,6.8,19.4c0.7,0.7,1.4,1.5,1.8,2.4
		c2.3,5.1,6.6,10.4,2.9,16c-3.6,5.5-9.8,2.3-15,2.2c-1.5,0-2.9-1.8-4.6-0.3c-5.3,13.5-5.2,27.7-3.2,41.6c1.7,11.7,12,17.8,22.7,24.8
		c-6.7,0.8-11.4,1.5-16.2,2c-14.7,1.5-23.9-5.2-25.7-20.1c-1.2-10-4.1-19.1-10.3-26.9c-5.6-7.1-5.5-16.4-10.1-23.7
		c-5.7-4.5-11.2-9.2-15.2-15.4c0.6-1.7,0.7-3.6-0.6-4.7c-9.8-9.3-15.6-21.6-23.4-32.3c-3.3-7.3-10.2-10.9-14.7-14.4
		c5.5,3.5,11.7,8.8,16.1,16.1c6.4,10.1,12,20.9,21,29.2c1.3,1.2,1.7,2.8,1.6,4.6c-1.7,3.4,1.5,5.5,2.3,8.3c0.6,2.2,2.5,4.7,0.6,6.6
		c-2.6,2.6-4.8,0-7-1.4c-1.1-0.7-2.2-1.6-3.1-2.6c-0.6-0.7-1.2-1.5-1.6-2.3c-4.5-8.3-4.1-19.7-15.1-24c-4.4-2.1-7.4-5.8-10.9-9
		c-6.8-7.2-14.9-13.7-13.6-25.3c-0.4,1.8,0,3.9-2.2,4.7c1.3,1.2-4.3-1.6-0.6,1c2.7,1.9,6.2,4.5,3.9,7.9c-2.7,4.1-6.4,1.4-9.6-0.7
		c-3.9-2.5-5.1-7.2-8.3-10.2c-0.6,0.9-0.9,1.9-0.9,3c0,4.6,5.6,7.2,4.2,12.2c-54,5.4-108,8.8-162,0.3c-7.6-1.2-15.2-3-22.2-6.3
		c-0.6-0.4-0.8-0.9-0.6-1.3c0.2-0.4,0.4-0.7,0.6-0.7c7,1.6,12-5.7,19.2-4.1c3.4,0.7,7.3-1.2,10.2,2.5c1.3,1.6,3.9,2.2,5.6,1
		c13.3-9.3,29.9-8,44.3-14.3c34.2-15,67.4-31.8,99.9-50.2c44.8-25.4,91.6-28.9,141.4-16.9c40.1,9.7,74.5,27.8,104.5,55.8
		c22.5,21,48.6,33.5,80.6,29.4c4.2-0.5,8.7,0.8,13,1.3c1,1.3-3.2,5.8,2.4,4.2c1.5-0.4,1.4-3.9,4.2-2.8c6.8,1.4,13.7,2.4,20.4,4.3
		c3.8,1,7.9,3.1,3.8,8.3c-12.3,3.4-25,3.7-37.5,6.1c-1-0.2-2-0.5-2.9-1c-1.9-1.1-2.1-3.1-2.9-4.9c-1.3,1.6-2.3,3.4-2.9,5.5
		c-0.7,2.4-0.3,5.3-2.9,7c-4-0.9-2.2-4.1-2.7-6.7C651.1,720,650.9,723,648.1,725z"/>
	<path class="st6" d="M410.5,599l-0.8,0.1l-0.7-0.3c-2.7-6.6,1.4-13,0.7-19.5c-0.4-3.6,0.6-7.3-0.4-10.3c0.7,9.7,0.4,19.9-3,29.9
		c-1.9,0-3.9,0.1-5.8,0.1c-2.2-2.8-1.5-6-0.2-8.6c5.1-10.7,3.4-21.5,1.1-34.1c1.6,10,3.4,18.3,0.9,27.8c-3.9-3.3-2.5-7.6-4.3-10.4
		c-2.6-12.7-5.7-25.3-9.2-39.6c3.1,14,6.6,26.1,8.7,38.4c1.6,4.7,3.4,9.4,0,17.1c-5.1-13-7.7-24.5-11.8-34.6
		c3.1,8.8,6.3,18.5,9.2,28.3c0.8,2.8,2.5,7.5-3.9,4.5c-3.1-4.5-4-10.1-6.1-14c1.5,3.9,2.9,8.8,5.5,13.3c2.3,3.6,6.1,6.7,3.7,11.7
		c-1.2,0.8-2.4,1.5-3.6,2.3c-4.1-1.5-5.5-5.1-6.8-8.9c0,3.2,3.7,5.5,2.2,10.2c-9.4-2.2-15.5-9.1-22.1-15.1c-2.1-1.9-0.9-5.2,0.6-7.5
		c5.1-8.4,6.8-18,9.6-27.2c2.7-11.4,5.4-22.7,8.2-34.5c12.2,7.1,23.4,13.7,34.7,20.3c4.4,5.9,9.3,11.3,15.5,15.8
		c1.6-6.4,1.6-6.4-0.2-15.6c0.3,4.7,2.9,9.2,1,15c-7.5-3.5-11.4-10-16.4-15c0-10.3,8.8-16.1,13-24.3c2.1-4.1,4.4,0,6.3,1.3
		c15.2,10.3,24.4,25.1,31.5,41.6c1.3,5.2-2.5,7.9-5.3,11.1c-3.4,3.6-6.6,10.2-11.5,8.5c-5.7-1.9-1.8-8.9-2.2-13.5
		c-0.5-5.2-0.8-10.6,0.1-15.9c-0.9,13.9,0.9,28.2-2.7,42.2c-6-1.6-2.1-6.6-3.8-8.5c-1.6,5.8,4.4,12.1-1,18.2
		c-3.3-0.1-6.6-0.1-9.9-0.2c-1.7-7.8,4.2-13.3,6.1-20.1c0.6-3.2,3-5.7,3.2-9.1c-0.2,2.9-2.4,5.2-3,8c-4.3,6.4-3.2,15.8-11.2,20.2
		c-3.1-1.3-2.3-3.5-1.3-5.9c2.5-6.4,2.7-13.3,4.9-19.8c-2,8.6-3.5,17.3-7.1,25.4c-5.3,0.9-6.2-2.4-4.8-6c2.7-7.1,2.9-14.7,4.1-20.1
		c0.1,4.6-2.5,10.6-4.3,17.2c-2.3-7.9-1.7-15.9-1.9-23c-0.2,7.3,0.2,15.6-0.5,23.9C415,593.7,414.8,597.4,410.5,599z"/>
	<path class="st14" d="M327.8,623.6c-2.4,3.6-6.5,4.5-10,6.5c-8.7,1.5-11.9-7.1-17.9-9.9c4.6,3.3,9,7.3,13.3,11.4
		c-0.6,0.7-1.2,1.4-1.7,2.1c-7.1,3.8-9.2-4.2-13.7-5c2.1,2.5,7.9,3.1,7.4,8.9c-8,4.1-16.1,8.3-24.1,12.4c-4.9,0.1-4.5-3.9-3.8-6.3
		c2.2-7.6-2.1-10.1-8-12.4c-3.8-1.4-8.8-2.3-9-8c5-21.8,5-21.8,28.6-19.4c3.3,7.9-1.9,15.4-1.1,22.2c1.4-6.7,1-14.7,3.7-22.3
		c4.3-6.2-0.3-12.2-1.1-18c-2.2-15.2,4.2-20.7,19.5-15.7c4.6,1.5,8.3,5.9,13.8,4.8c9.6,1.3,17.5,6.6,25.4,11.3
		c6,3.6,5,18.9-0.8,27.6c-2.1,1.2-4.3,2.5-6.4,3.7c-6.4-6.7-3.9-16.2-7.6-22.5c0.3,7.4,6.8,15.3,3.4,24.5c-0.5,0.2-1.1,0.5-1.6,0.8
		c-5.4-0.1-6.3-4.8-7.2-8.3c-1.8-7.3-5.1-13.7-8.9-20c-1.9-3-4.1-5.8-8-8.9c3.9,3.2,6.2,6,8.2,9.1c5.6,9.2,9,19.3,11.7,29.6
		c-0.8,1.9-2.4,2.2-4.2,2c-5.2-6.5-8.9-14-14.2-20.4c-2.6-4.2-6.3-7.4-9.8-10.6c3.6,3.3,7.3,6.7,10,10.9
		C318.8,610,322.2,617.5,327.8,623.6z"/>
	<path class="st15" d="M367.2,706.6c2.6,2.7,5.3,5.3,7.9,8c6.8,3.1,10.9,8.3,12.5,15.6c0.8,3.9,2.2,7.7,4.9,10.8l-0.1-0.1
		c1,1.9,3.2,3.4,2.1,6c-1.3-0.1-2.6-0.1-3.9-0.2c-7.7-3.4-12-9.2-12.7-17.7c-0.5-6.6-5.7-9.4-10.5-12.5c4.4,2.9,9.5,5.5,10,11.5
		c0.7,8.3,4.8,14.3,11.4,18.9c-2.4,7.8-6.2,14.2-15.3,15.1c-14.7,1.5-21.8,13.8-26.9,24c-5.2,10.5,0.8,22.2,11.6,29.3
		c0.5,0.3,0.7,1.1,1.1,1.6c-1.1,2.1-2.9,1-4.3,0.8c-4.5-0.6-8.5-6.5-13.7-0.8c-0.6,0.6-4.4-1.1-6.2-2.5c-8-5.9-11.1-26-5.8-34.5
		c3.7-6,7.1-12.2,9.7-18.7c4.6-11.4,12.1-20.8,19.9-30c4-4.7,4.2-8.3-1.6-11c-7.8-3.6-11.9-10.5-15.8-17.6c-0.7-2.5,0.6-3.9,2.6-5
		C355.1,692.2,359.7,703.1,367.2,706.6z"/>
	<path class="st14" d="M461,565.1c3.8-1.4,4.6-5.1,6.4-8c7.2-5.5,9.5-14.4,15.1-21.1c2.5-3.1,4.2-6.9,8-9
		c9.3,9.4,11.5,23.4,21.6,32.1c9.8,11.7,13.8,25,10.8,40.2c-2.2,2.7-5.2,4.7-7.2,7.6c-3.7,2.8-6.2,7.7-12.1,6.8
		c-2.1-0.3-4.6,0.5-5.9-2.1c1.7-8.9,7-16.4,8.6-24.2c-3.2,7.2-4.8,16.5-10.6,23.8c-1.7,0.3-3.3,0.3-4.1-1.6
		c3.1-13.8,8.3-27.2,7.3-40.2c-0.5,12.8-2,26.9-9.2,39.8c-1.3,0-2.5-0.1-3.8-0.1c-3.3-8.7-0.7-17.4,1.5-25.5
		c2.6-9.4,3.9-18.9,5.8-29.1c-1.6,7.2-2,13.8-3.3,21.6c-4.9-4.1-2.4-8.5-3.1-12.1c-0.7,14.5,1.4,29.4-5.3,43.1
		c-2.2,0-4.6,0.9-6.1-1.6c1-14.9,2.8-29.8-0.1-42.5c1.1,12.7,3.7,27.5-1.9,42.2c-1.2,0-2.4-0.1-3.6-0.1c-6-9.2-1.9-20.3-5.5-29.9
		c0-1.4-1.9,0.6-0.8-0.1c0.2-0.1,0.4,0.1,0.5,0.7c1.5,9.1,4.2,18.2,1.4,27.6c-2.9,0-5.9,0.8-8.2-1.8c-8.6-14.1-8.4-18.1,1.5-30.9
		C460,568.9,460.3,567,461,565.1z"/>
	<path class="st15" d="M601.7,793.2c-0.2-0.5-0.2-0.9-0.1-1.4c4.5-3.9-2.5-2.5-2.1-4.6c-7.4-7.1-14.8-14.1-24.6-18
		c-8-3.1-11.8-10.3-14.4-18c-1.7-5.9,2.9-9.9,6.4-10.9c8.7-2.4,18-3.1,26.1,2.7c5.9,10.1,11.8,20.3,21.7,27.3
		c3.1,2.2,5.2,5.3,5.3,9.3c0.6,12.5,1.9,24.6,13.4,33.1c-12.6,5.3-21-2.4-30.4-5.9c-4.6-1.7-2.7-4.3-1.6-7c4.1-2.8,8.3-0.9,12.8-0.6
		c-2.9-1.8-6.7,1-9.3-2.5c1.9-3.5,4.6-2,6.8-1.7C609.3,792.4,604.5,797.1,601.7,793.2z"/>
	<path class="st16" d="M325.5,570.9c3-6.1,2.8-12.1,0.7-18.6c-1-3.3-3.9-7.8-1.3-10.4c2.8-2.8,6.8,0.8,10.1,2
		c11.7,4.3,23.3,8.8,34.9,13.3c5.2,6.9,0.1,12.8-2.4,18.5c-1.4,3.3-4.7,1.6-6.1-1.3c-1.5-3-2.1-6.4-3.6-9.4c3.9,8.2,5,17.3,8.6,25.5
		c1.4,4.8,0.6,9.9,1.6,14.8c0.4,1.5-0.7,1.9-1.8,2.2c-4.5,1.2-5.2,1.3-6.3-4.9c-2.4-13.3-5.7-26.7-10.2-38.1
		c1.1,4.3,2.9,9.8,4.9,15.3c1.1,3.3,0.3,7-3.8,6.2c-9.6-1.8-18.3-6.2-25.9-12.5C324.3,573.1,324.8,571.7,325.5,570.9z"/>
	<path class="st17" d="M514,556.7c13.9-17.1,13.9-17.1,22.2,2.5c1.4,3.4,2.8,6.8,4.2,10.2c6,14,6.7,27.2-5.8,38.5
		c-2.7,2.5-4.9,5.6-6.7,8.8c-3.1,5.5-6.9,5.4-11.7,2.6c-0.8-4.3,3.4-6,5.1-9.1c1.9-3.7,3.3-7.1,1.7-11.2c1-12.1-2.5-23.2-7.3-34.1
		C514.6,562.5,511.9,560.1,514,556.7z"/>
	<path class="st18" d="M538.5,621.5c0.6-7.3,2-13.2,11.1-15.1c6.1-1.3,8.3-8.4,12.2-12.9c2.4-2.7,4.6-5.6,7.5-9
		c4.8,7.5,5.2,15.6,7.6,22.9c1.6,6.9,1.1,14,0.2,20.8c-1.4,10.3-9.9,13.2-18.7,15.2c-2.1-0.4-3.5-1.6-4.4-3.5
		c1.6-4.9,4.8-8.8,7.9-12.7c3.5-1.9,4-6,7.3-10c-3.4,3.5-3.5,7.8-7.2,9.1c-4.4-1.9-1.4-4.7-1-7.2c2.4-5.7,4.8-11.5,6.8-17.4
		c-1.9,5.4-4.1,10.7-6.5,15.8c-2.9,7.1-3.3,15.5-10.9,20c-2-1.3-4-2.5-6-3.8c-4.5-5.2,0.7-9.1,1.9-13.7
		C544.6,625.2,541.9,625.2,538.5,621.5z"/>
	<path class="st19" d="M593.2,623.6c1.2,14.1-7.3,22.9-17.9,29c-7.2,4.1-10.7-3.5-14-8.8c1.8-1.5,3.4-3.6,5.5-4.4
		c8.8-3.3,11-9.7,10.3-18.4c-0.4-4.7-2.1-10.4,4-13.4c1-0.1,2-0.1,2.9-0.3c11.8-2.2,11.8-2.2,10.8,10c-0.5,2.7-2.1,4.6-4.1,6.5
		c-1.6,1.5-2.5,3.9-3,5.9C589.8,628.1,588.4,623.1,593.2,623.6z"/>
	<path class="st20" d="M239.6,639.7c0.2-13.2,10.1-11.8,18.7-12.4c7-0.7,13.9,2.7,17.9,6.7c5.4,5.3,2.8,13.3-1.6,19.6
		c-2.6,1.1-5.2,2.3-7.9,3.4c-5.3-4.8-4.4-12.4-8.1-16.9c-0.6,4,8.3,10.4,1,13.2c-4.8,1.9-5.5-7.7-8.6-11.7c-0.8-1.1-1.3-2.3-1.1-1.7
		c0.9,2,3.1,5.6,4.7,9.5c0.9,2.2,4.1,4.8,0.9,7c-2.8,1.9-4.9-0.7-6.7-2.7C245.7,649,242.7,644.3,239.6,639.7z"/>
	<path class="st21" d="M504.1,709.7c-3.2,6.7-6.1,13.5,0.5,23.4c-5.4-20.9,11.2-28.1,19.2-40.1c-2.2,14.1-24.9,20.5-15.1,39.2
		c-2.1-10.9,3.7-17.2,12.8-20.3c8.3-2.8,17.2-4.5,24,4c-7.1-3.8-14.3-4.4-21.8-1.4c-6.7,2.7-12.3,4.9-10.4,14.8
		c1.2,6.1-2.1,13-3.4,19.6c2.7,2.4,4.7-2.2,6.8-0.7c-2.4,7.1-4.8,14.2-7.1,21.2c-3.8-3.2,1.1-10.5-5.9-12.2c3.3-7.2,6.3-13.6-1-21.1
		c-8-8.2-6.8-18.5,1.1-29.9C504.8,707.4,504.8,708.5,504.1,709.7z"/>
	<path class="st22" d="M325.5,570.9c5.8,8.9,15.7,10.7,24.7,13.7c4.2,1.4,3.6-2.4,2.8-5.1c-2.3-7.8-5.7-15.4-4.9-24
		c5.1,15.5,10.5,30.8,15.1,46.4c0.7,2.4-3.6,6.6,3.1,5.7c-2.3,2.7-5.9,1.9-8.6,3.3c-3.9-3.8-4.2-8.9-4.7-13.8
		c-0.1,5,2.5,9.8,1.3,14.9c-1.5,2.3-3.9,1.6-6.1,1.8c0-0.3,0-0.7,0-1c4.4-22.2,4.3-22.1-15.4-32.2c-3.2-1.6-6.2-3.8-9.2-5.7
		C324.2,573.5,324.8,572.2,325.5,570.9z"/>
	<path class="st23" d="M244.2,667.8c-6.8,2.8-13.6,5.7-20.5,8.2c-2.9,1.1-6.6,1.4-8-2c-2.1-5.2,0.2-10.4,2-15.3
		c1.5-4.4,4.4-1.2,6.6-0.9c3.3,0.5,6.5,1.3,9.7,2c1.9-1.3,3.5-0.1,5,0.8C240.9,663,245,663.6,244.2,667.8z"/>
	<path class="st24" d="M398.9,572.9c2.8,1.9,1,5.6,2.9,8.2c2-8.7-2.1-16.7-0.2-25c4.8,14.4,4.7,28.7-1.1,42.9
		c-2.3,3.6-4.3,0.5-6.4-0.2c-1.4-3.7-2.8-7.4-4.3-11.1c-0.2-1.1,0.2-1.4,1.2-1.1c4.8,2.8,3-0.9,2.4-2.7c-3.2-10.4-6.6-20.8-9.9-31.1
		c0.8-0.3,1.7-0.6,2.5-0.9c3.8,11.2,7.6,22.5,11.4,33.9c2.1-4.6-0.8-8.6-1-12.9C397.4,572,398.1,572,398.9,572.9z"/>
	<path class="st25" d="M461,565.1c0.2,1,0.9,2.6,0.5,2.8c-12.4,9.8-6.5,21.9-4.4,33.5c-0.7-0.1-1.4-0.3-2.1-0.4
		c-6.9-3.9-4.1-12.1-7.4-17.7c1.9,6.1,3.8,11.8-0.2,17.6c-2.1-0.6-4.3-1.1-6.4-1.7c0-6.9,0-13.9,0-21.4c4,2.6,1.3,6.2,3.1,9
		c2.8-14.3,3.1-28.6,4.6-42.9c0,10.4,0,20.8,0,32.2C455.2,573.9,457.4,568.8,461,565.1z"/>
	<path class="st26" d="M366,591.6c-6.8-5.5-2.9-14.7-7.6-21.1c-2.4-3.3-2.7-8-2-13c2.5,6.3,4.9,12.6,7.7,19.8c5.9-6.4,6.5-13,5.7-20
		c2.6-0.5,2.4-3.4,4.1-4.7c1,10.1-1.6,19.4-7.2,27.6c-3.1,4.5-2.4,7.3,2.4,9.3c6,2.5,10,7.6,15.5,12.3c0.4-6.3-5.1-9.8-5.1-17.6
		c4.6,7.1,7.8,12,11,16.8c-3.3,1.7-6.7,2.7-10.4,2.1C374.4,600.6,370,596.3,366,591.6z"/>
	<path class="st27" d="M611.3,647.8c0.7,0.7,1.5,1.4,2.2,2.2c6.3,9.9,2,18.9-14.6,26.5c-10.7-7.2-11.6-13.5-3.3-24.5
		c8.4-0.5,8.4-0.5,6.4,11.5c4.8-0.6,4.3-4.2,5-7.1C607.7,653.2,605.7,648.6,611.3,647.8z"/>
	<path class="st28" d="M481.5,607.2c1.5-15.8,3.1-31.5,4.7-47.9c3.6,4.6,0.2,9.7,2.7,13.9c1.1-7.7,2.1-15.3,3.1-22.8
		c3.1,13.1-1,25.5-2.8,38.2c-1,6.9-4.5,13.4-3.3,20.7C484.4,608.5,483,607.8,481.5,607.2z"/>
	<path class="st29" d="M611.3,647.8c-2.9,3.9-1.3,8.4-1.7,12.6c-0.3,3.5-2.6,5.2-5.2,6.8c-3,1.9-1.8-3.9-5.6-3
		c-1.9,0.5,0.3-4.3,1.4-5.8c4.9-7-3.4-4-4.5-6.3c2.9-5.7,8.3-8.9,12.7-13.1C612,641.2,610.8,644.8,611.3,647.8z"/>
	<path class="st30" d="M593,743.1c-15.4-6.2-27.7-3.1-32.6,8.2c-1.8-3-4.5-4.5-8-4.5c6.9-0.9,10.4-5.3,13.5-11.3
		c1.2-2.5,0.2-10.6,8.3-6.5c1.2,0.6,1.8-6.3,3.6-9.7c3.7,5.2-0.7,9.3-1.1,13.8l0.1-0.1c-2,1.6-5.5,2.4,0.2,4.7
		c6.5,2.6,12-3.3,18-0.7C594.4,738.9,593.7,741,593,743.1z"/>
	<path class="st31" d="M250.6,651.7c1,1.7,1.9,3.6,5.3,3.6c-2.8-7.6-8-13.9-8.8-22c5.2,5.9,6.7,14.2,13.2,20.5
		c1.4-8.4-5.1-13.8-3.2-21.6c3.2,8.2,6.4,16.4,9.6,24.6c-3.4,1.7-6.7,3.4-10.1,5.1c-2.4-1.5-5.8-1.5-7.4-4.1
		C247.7,655.5,245.3,652.6,250.6,651.7z"/>
	<path class="st26" d="M410.5,599c5.7-13,3.5-27,5.9-40.7c0,9.5,0,19.1,0,28.6c0.5,0,1.1,0.1,1.6,0.1c1.3-8.4,2.5-16.8,3.8-25.2
		c2.3,9.9-0.3,19.3-1.6,28.7c-0.3,2.4-4,6.2,2.3,6.2c0.6,0.4,0.9,0.8,0.7,1.3c-0.1,0.5-0.3,0.7-0.5,0.7
		C418.7,598.8,414.6,598.9,410.5,599z"/>
	<path class="st32" d="M457.5,751.3c-0.3-2.1,0-4.7,1.9-5.3c2.5-0.9,1.3,2.3,2.3,3.2c3.6,3.2,8.4,2.8,12.1,1.6
		c4.1-1.4,3.5-5.9,2.1-9.6c-0.9-2.5-1.7-5.3-3.3-7.2c-7.2-8.3-10-17.8-9.4-28.6c0.6,0,1.1,0,1.7,0c-0.2,17.4,17.3,29.4,14.9,47.5
		C472.3,752.9,464.8,754.3,457.5,751.3z"/>
	<path class="st33" d="M628.8,670.2c2,3.5,0.2,10.6,7.9,6.6c2-1,2.1,2.3,1.7,3.5c-1.2,3.9-0.6,9.5-6.3,10.1c-6.6,0.7-9.9-2-9-9.4
		C623.5,676.6,625.1,673.4,628.8,670.2z"/>
	<path class="st33" d="M598.9,676.5c1.3-1.5,2.2-3.8,3.9-4.5c10.3-4.2,11.9-12.4,10.7-22c6.6-3.3,8.6-1.6,7.3,5.8
		c-1.9,10.1-10,15.6-15.9,22.6C603,680.5,600.6,678,598.9,676.5z"/>
	<path class="st34" d="M394.5,746.9c-0.6-2-3.1-3.4-2.1-6c3.9,0.3,4.3,6,8.7,5.5c2.4-4.9-9-7.9-1.9-13.5l-0.2-0.1
		c5.7,5,13,8.4,15.7,16.2C407.9,749,400.9,750.5,394.5,746.9z"/>
	<path class="st35" d="M698.3,714.4c-11.9,3-23.5,7.2-36,6.7c-2.7,0.2-3.4-1.5-3.3-3.7c0.1-1.9,1.1-3,3.2-2.8l-0.1-0.1
		c4.9,2.7,9.6,0.9,14-0.9c6.7-2.7,13.6-2,20.4-1.9C698.1,711.8,698.7,712.8,698.3,714.4z"/>
	<path class="st36" d="M250.6,651.7c-3.6,6.7,5.8,5.8,6,10.2c-0.5,0.2-1.1,0.4-1.6,0.5c-10.5,0.5-14-7.7-18.5-14.6
		c1.1-2.7,2.1-5.5,3.2-8.2C247,640.3,246.4,648.2,250.6,651.7z"/>
	<path class="st37" d="M581.1,607.6c-2.4,2.8-2.6,6.3-2,9.5c2.4,14.5-4.9,22.4-17.8,26.7c-0.9-0.1-1.8-0.3-2.8-0.4
		c0.5-0.5,0.8-1.1,1.4-1.4c11.3-5.1,18-12.7,15.3-26.1c-0.6-2.9,0.2-5.9,1.8-8.6C578.3,607.4,579.7,607.5,581.1,607.6z"/>
	<path class="st38" d="M388.9,747.1c-7.6-1.2-10.3-7.5-11.9-13.4c-2.6-9.1-6.4-16.4-15.8-20.1c9.5,1.8,17,6.8,18.6,16
		c1.4,7.8,6,12.3,10.9,17.2C390,746.8,389.4,746.9,388.9,747.1z"/>
	<path class="st18" d="M366,591.6c6.1,2.2,11.1,5.7,14.2,11.6c-3.8,2-7.9,2.5-12.1,2.1C365.3,601.1,362.7,596.8,366,591.6z"/>
	<path class="st39" d="M489.7,609.3c4.7-15.5,8.6-31.1,9.8-47.4c1.1,16.5-0.6,32.6-7.9,47.7C490.9,609.7,490.3,609.6,489.7,609.3z"
		/>
	<path class="st40" d="M562.3,619.4c0.1,2-3.5,4.3,0.4,6c1,0.9,1.1,1.9,0.3,3c-1.9,4.6-4,9.1-8.8,11.4c-1.9,0.2-3.3-0.2-3.5-2.4
		c3.4-6.7,6.7-13.4,10.1-20C561.5,617.8,562,618.5,562.3,619.4z"/>
	<path class="st25" d="M274.6,653.5c5.6-16.2,4.3-18.3-16.2-26.2c0.6-1.3,1.2-2.6,1.9-3.9c1.9,1.3,3.5,3.4,5.6,3.9
		c10.9,2.8,18.2,7.6,13.7,20.5c-0.2,0.5,1,1.5,1.6,2.3C278.9,651.1,276.7,652.3,274.6,653.5z"/>
	<path class="st41" d="M524.2,601.4c3.1,0.4,4,1.7,2.3,4.7c-2.8,4.9-5.5,9.8-10.2,13.3c-1.5-0.8-3-1.6-4.5-2.4
		c-3-4.2,2.8-6.9,1.7-10.8c0.8-3.6,3.9-5.1,6.7-6.8c0.7,0.6,1.2,1.4,1.5,2.2c0.4,2.4-0.5,4.5-1.5,6.6c1.4-1.8,1.5-4.2,2.9-6
		C523.5,601.9,523.8,601.6,524.2,601.4z"/>
	<path class="st42" d="M144.2,667c4.7,5.1,9.5,10,14,15.2c1.2,1.4,4.9,3.1,1.3,5.3c-2.1,1.3-5.1,2-6.9-1.5
		c-3.1-6.1-6.4-12.2-9.7-18.3C143.3,667.5,143.8,667.3,144.2,667z"/>
	<path class="st43" d="M473.4,605.2c2-15,3.1-30.1,1.6-45.2c2.8,15.2,4.7,30.3,0.4,45.6C474.7,605.5,474,605.4,473.4,605.2z"/>
	<path class="st44" d="M520.4,601.9c-0.1-0.8-0.1-1.7-0.2-2.5c4.6-10.5-1.4-19.7-3.8-29.3c-1-3.8-2.8-7.3-4.3-11
		c0.6-0.8,1.3-1.6,1.9-2.4c5.9,14.3,12.3,28.5,10.2,44.6c0,0,0.1-0.1,0.1-0.1C523.1,602.5,521.8,602.7,520.4,601.9z"/>
	<path class="st37" d="M538.5,621.5c9,3.1,5.5-7.8,10.9-9.6c0.7,8-5.9,14.1-4.9,21.8C539.4,631.1,532.7,629.4,538.5,621.5z"/>
	<path class="st45" d="M236.4,647.8c7,3.9,9.9,12.8,18.5,14.6c-3.6,1.8-7.2,3.6-10.8,5.3c-1.3-2.8-5.4-2.6-6.2-6
		c-0.4-2,6.1,0.5,2.4-3.6c-2-2.1-3.9-4.2-5.8-6.2C235.2,650.7,235.8,649.3,236.4,647.8z"/>
	<path class="st42" d="M178.4,669.9c4.7,3.2,6.8,8.3,10.2,12.3c1.4,1.7,2.1,3.5-0.2,5c-2.3,1.5-3.7,0.1-4.8-1.8
		C180.8,680.7,176.1,676.6,178.4,669.9z"/>
	<path class="st38" d="M662.1,714.6c-2.5,2.2-2.8,4.4,0.1,6.4c-2.8,1.1-5.6,2.3-8.4,3.4c-0.7-0.4-1-0.9-0.8-1.4
		c0.2-0.5,0.4-0.8,0.6-0.8c0.2-2.3,0.9-4.7,0.3-6.8c-1.2-4.6,5.3-4.4,4.8-8.2C661.1,709.2,662.3,711.6,662.1,714.6z"/>
	<path class="st46" d="M337.6,619.4c-0.4-10.7-3.9-20.8-6.7-31.1c7.4,8.2,6.8,19.6,10.9,29.1C340.8,619,339.4,619.6,337.6,619.4z"/>
	<path class="st22" d="M495.7,611.2c4-10.4,7.9-20.8,11.9-31.3c-0.7,11.4-4.3,21.8-9.9,31.6C497,611.5,496.3,611.3,495.7,611.2z"/>
	<path class="st47" d="M291.4,603.8c-0.3,5.3,0.2,10.6-1.3,15.8c-1.3,4.7-2.1,9.4,4.4,14.2c-8-0.7-9.2-3.8-8.6-8.3
		c1-7.2,1.9-14.4,2.8-21.7C289.6,603.9,290.5,603.8,291.4,603.8z"/>
	<path class="st48" d="M698.3,714.4c-8.4-3.8-16.4-1.1-24.6,1c-3.7,1-8.3,4.9-11.7-0.9c13.6-1.1,26.7-7,40.7-3.9
		C701.5,712.2,700.9,714.5,698.3,714.4z"/>
	<path class="st17" d="M447.4,600.9c0-5.9,0-11.8,0-18.7c5.9,5.6,4.3,13.2,7.6,18.8C452.5,601,450,601,447.4,600.9z"/>
	<path class="st49" d="M331.9,621.7c-4.3-10-8.6-20-13-30c-0.2-1,0.2-1.3,1.2-1.1c4.8,5.4,7.4,11.9,9.5,18.7
		c1.3,4.1,1.9,8.7,6.4,10.9C335.1,621.9,333.4,621.6,331.9,621.7z"/>
	<path class="st50" d="M465.4,603.3c-0.7-10.1-1.3-20.3-2-30.4c5.8,10.2,2.6,21.8,6.4,32.2C468.3,604.5,466.8,603.9,465.4,603.3z"/>
	<path class="st51" d="M234.5,652.1c6.9,0.6,8.9,7,13.5,10.8c-4.1,2.4-6.7-1.9-10-1c-1.3-0.7-2.6-1.3-4-2
		C234.2,657.3,234.4,654.7,234.5,652.1z"/>
	<path class="st52" d="M313.2,631.7c-7.8-3.9-13.7-10-19.6-16.1c9.4,2.9,14.4,12.6,24.2,14.6C316.7,632.2,314.9,631.8,313.2,631.7z"
		/>
	<path class="st52" d="M406.4,598.9c0.9-10.3,1.8-20.6,2.6-30.9c2.9,10.4,1.5,20.6,0,30.8C408.1,598.9,407.3,598.9,406.4,598.9z"/>
	<path class="st53" d="M422.8,598.8c-0.1-0.7-0.2-1.4-0.2-2c2.2-9,4.5-18,6.7-27c3,9.8-4.4,18.3-2.4,27.9c0,0.5,0,0.9,0,1.4
		C425.6,598.9,424.2,598.8,422.8,598.8z"/>
	<path class="st54" d="M176,676c-7.8-8.2-1.3-15.5-3.8-22C178.4,660,174.4,667.4,176,676z"/>
	<path class="st48" d="M678.5,698.1c-3.6,1.6,1.9,7.9-4.2,8.1c-2.8,0.1-3.2-2.8-4.8-4.2c-5.4-4.9,2.4-3.2,2.4-5.3
		C674.4,696,676.6,696.2,678.5,698.1z"/>
	<path class="st22" d="M305.1,637.6c-2.3-6.2-10.5-6.7-13.1-13.5c8,1.2,11.3,10.4,19.4,9.7C309.3,635,307.2,636.3,305.1,637.6z"/>
	<path class="st55" d="M354.2,611.9c-4.6-5.1-1.1-11.1-1.4-16.7c1.1,5.4,5.3,9.8,4.8,15.6C356.5,611.2,355.4,611.6,354.2,611.9z"/>
	<path class="st56" d="M601.7,793.2c4.3,0,8.6,0,13.3,0c-2,4-5.4,1.7-7.7,3.5c3.1,1.6,6.9-0.7,9.9,2.1c-5.3,2.7-10.6,0.2-15.7,1
		C601.5,797.6,601.6,795.4,601.7,793.2z"/>
	<path class="st57" d="M513.5,606.2c4.4,4.4-1.9,7.1-1.7,10.8c-3.1-0.3-6.1-0.6-8.2-3.3C506.9,611.2,510.2,608.7,513.5,606.2z"/>
	<path class="st22" d="M426.9,599c0-0.5,0-0.9,0-1.4c3.4-6.9,6.7-13.8,10.1-20.6c0.8,0.4,1.3,1,1.5,2c-1.8,6.9-6.5,12.8-7.3,20.1
		C429.8,599,428.3,599,426.9,599z"/>
	<path class="st58" d="M153.3,692.3c0,0.7,0,1.3,0,2c-5.7-2.1-11.3-4.3-18.5-7C143.4,685.1,148.9,686.9,153.3,692.3z"/>
	<path class="st59" d="M593.2,623.6c-4.5,2.7-2.6,9.8-9.2,12.3c1.7-8,6.4-13.2,10.8-18.5C595.4,619.7,595.3,621.9,593.2,623.6z"/>
	<path class="st60" d="M343.7,698.4c-0.7,1.4-1.5,2.9-2.2,4.3c-1.3-0.8-2.7-1.6-4-2.4c-3.2-4-6.1-8.1-7.6-13.1c2-3.4,4-1.5,5.1,0.4
		c2.1,3.8,5.2,6.6,8.1,9.6C343.3,697.5,343.5,698,343.7,698.4z"/>
	<path class="st61" d="M201.7,666.2c0.3,5.2,1.7,10.6-1.4,16.9c-3.5-4.2-2.3-7.6-2.2-10.9C200.4,670.8,196.5,665.8,201.7,666.2z"/>
	<path class="st62" d="M536.5,612.7c-2,5.9-0.9,10.3-4.7,12.9c-1.1,0.8-3.1-0.3-3.1-1.5C528.7,619.8,532.2,617.5,536.5,612.7z"/>
	<path class="st63" d="M201.7,666.2c-3.1,0.9-1.2,4.7-3.6,6c0-5.5,0-11,0-18.8C200.7,658.8,202.4,662.1,201.7,666.2z"/>
	<path class="st56" d="M599.5,787.2c4,1.8,7.6-1.2,12.1-1.1c-2.5,4.3-6.1,5.3-10.1,5.7C600.9,790.3,600.2,788.8,599.5,787.2z"/>
	<path class="st64" d="M653.8,722.3c0,0.7,0.1,1.4,0.1,2.1c-1.9,0.2-3.9,0.4-5.8,0.6c2.7-4.3,0.7-9.3,1.2-14.4
		C654.7,713.9,649.6,719.6,653.8,722.3z"/>
	<path class="st65" d="M1041.2,564.9c3.3-18.2-3.4-31.2-19.1-41c-9-5.6-16.7-13.4-24.9-20.4c-1.7-1.5-9-3.8-0.2-6.1
		c-0.2-0.9-0.4-2.5-0.7-2.6c-14.4-2-12.3-15.1-16.5-24c-1.1-2.4-2.4-4.7-3.7-7c-2.8-10.3-4.1-20.9-7.7-31c-1.1-3.2-1.5-7.1,0.4-9.8
		c4.7-6.6,6-13.9,6.6-21.6c0.1-1.5,0.6-2.7,2.3-2.5c1.2,0.1,1.6,1.1,1.2,2.2c1.2-0.9,0.4-2-0.1-2.6c-1.9-2.4-3.1-0.3-3.1,1.1
		c0,5.5-2.1,10.5-2.6,15.8c-4.1-0.5-7.5,0.6-9.5,4.6c-0.6,1.1-4.3,0.3-1.3,3.5c8.4,8.7,8.9,20.6,11.8,31.5c1.5,5.7-1.6,6.6-6.1,5.5
		c-4.5-1.1-8.6-3.9-9.5-8.3c-2.2-11.1-8.8-18.3-18.4-23.3c-13.8-10.4-28.6-19.7-39.1-34c-0.5-2.1,0.6-3.1,2.3-3.8
		c1.5-0.6,4.2-0.8,4.4-2.1c1.5-12.7,13.2-21.8,12.7-35.1c-0.4,5.6-2.7,10.7-5.7,15.4c-2.2,3.5-3.5,7.2-4.2,11.2
		c-1.9,11.3-6.8,13.2-16,6.4c-1.1-0.8-2.2-1.5-3.3-2.3c-1.4-0.8-2.7-1.6-4.1-2.4c-3.5-0.5-7.2-0.5-9.7-3.8c-2.9-1.3-5.7-2.5-8.6-3.8
		c2-6,6.9-1.8,9.4-2.9c6.4-18.7-10.7-27.2-17.1-40.2c-2.7-5.5-9.8-3-14.9-1.8c-3.9,0.9-7.4,3.3-11.6,2c-0.7-5.4,4.3-5.2,7.1-6.8
		c8.9-5.3,19.5-7.7,27.6-17.9c-10.3,11.5-23.4,14.5-34.3,21.1c-1.6,1-3.2,0.9-4.7,0c-14,3.5-17.5,1.8-23-11.8c3-0.3,5.9-0.7,8.8-1
		c13-5.5,24.7-13.3,38.5-20.6c-20-3.8-38.5-7-57-10.8c-9.2-3.2-2.7-8.2-1.5-12.6c4.4-0.9,5.7-5,8.2-8c7.7-1.8,15.4-0.6,23,0.4
		c6.4,0.8,11.8,0.1,17.2-2.9c2.7-0.8,2.7,1,2.2,2.6c-1.3,4.5-3.5,9.9,1,12.8c4.9,3.2,9.2-1.3,13.3-4.1c1,0.6-0.1-2.4,0.1-1.1
		c-5.5-0.6-6.4-3.6-4.3-8.2c11.7,0.8,17.9,10.9,27,16.2c1.5,0.9,3.3,3.3,3.1,4.9c-1.7,15.2,10.1,20.3,19.9,26.9
		c3.3,2.2,7.2,3.8,11,5.1c6.2,2,8.1,4.9,2,10.8c13.8-5.7,25.5-1.9,36.6,4c7.4,3.9,14.3,8.9,21.2,13.7c13.2,9.3,25.6,19.3,40.8,25.7
		c10.3,4.3,18.1,13.3,22.9,23.5c5.7,12.2,12.3,23.7,20.1,34.7c12.7,18,13.5,39.6,18.4,60c4.8,20.3,10.5,40.2,20.2,58.9
		c4.9,9.5,15,12.9,21.4,20.4c1.6,1.9,2.3-2.9,4.3-2.6c6.1,0.9,11.8-2.1,18-2.1c-11.2,11.7-30.1,14.5-44.8,6.4
		c-19.5-10.8-33.1-27.3-43.8-46.4c-5.1-9.1-9.9-18.3-15.3-27.3c-5.1-8.5-11.5-15.8-20.7-20.1c-3.3-4.3-1.1-8.2,0.9-12.1
		c5.8-11.9,9.9-24.1,10.4-37.5c0.3-8.3,7.2-15.4,4.8-22.4c-5.4,21.1-4.6,46-19.7,66.3c-1.8-11.8-7.1-23.5,0.1-35.4
		c1.3-2.2,2.3-5.3,2-7.7c-1.2-8.9,0.3-17.6,1.2-25.1c-3.7,9.3,2.4,21.9-3.5,30.7c-4.7,6.8-2.8,12.1-3.1,18.3c-0.1,1.3,0-0.4,0.2,1
		c1.1,8.3,2.9,16.7-4.4,23.5c-2,1.9-0.8,5.1-1.3,7.7c0.6-5.9,1.8-11.4,8.9-12.8c1.3,2.1,0.9,4-0.5,5.8c-2.5,6.5-0.2,10.3,5.8,13.8
		c8.5,5.1,16.5,10.2,18.5,22.1c1.8,10.5,10.4,18.6,17,26.9c2.5,3.2,2.9,5.3,2.2,8.4c-2.1,8.9-2.7,17.7-1.7,26.9
		c1.4,13.3-6.5,20.4-17.6,17c0.2-7.1,8.5-10.2,8.5-17.6c0-2.9,1.2-5.9,0.9-8.9c-0.1-1.4,0.4-3.9-2.3-3c-1,0.3-1.5,2.1-2.4,3.1
		C1042.9,565.4,1042,565.4,1041.2,564.9z"/>
	<path class="st6" d="M923.4,564.9c7.4-10.4,8.2-21.8,4.8-33.7c-2.6-9-6.2-17.8-8.1-27c-3.4-16.7-7.3-33.4,5.2-48.9
		c5.8-7.2,9.5-16.1,14.2-24.2c12,1.4,15.4,4.1,17.5,14.8c1.6,7.8,5,13.7,13.6,15.1c1.7,0.3,3.1,1.2,3.7,2.9
		c-6.1,6.4-14,8.6-22.2,10.4c-11.8,2.6-14.6,7.4-8.3,17.7c6.2,10.1,6.5,20.1,4.5,31c-1.2,6.6-2.5,13.8-0.2,20
		c5,13.4-7.6,22.7-5.4,36.4c-4.4-4-0.7-9.9-6.3-10.1c-3.8-0.1-5.8,3.9-6.5,6.9c-2.8,12.1-11.7,13.5-21.6,13.1
		c-5.9-0.3-12,1.9-17.7-1.3c-1.3-3,0.7-4.7,2.7-6.3c4-0.8,8-1.6,12-2.4C912.6,576,921.1,574.4,923.4,564.9z"/>
	<path class="st66" d="M797.5,284.3c6.6-2.8,12.4-0.5,19,1.4c12,3.5,24.8,4.2,37.3,6c2.2,0.3,5.4-1.2,6.2,1.7
		c0.9,3.6-2.9,3.6-5.1,4.7c-9.3,4.7-18.5,9.5-27.8,14.1c-3.5,1.7-6.7,4.7-11.2,3.5c4.1-5.7,12.3-5.7,16.4-11.5
		c-1.9-3.8,3.2-3.8,3.5-6.5c-4.7-0.7-9.2,0.6-13.7,0.2c-1.2-0.6-2.5-1.3-3.7-1.9c-7.4-0.5-14.3-3-20.9-6.2
		C794.2,287.9,797.9,286.1,797.5,284.3z"/>
	<path class="st53" d="M974.3,463.7c-11.6-2-17.7-8.6-19.2-20.6c-1-8.1-9.1-9.7-15.7-12.1c-0.1-0.7,0.1-1.3,0.6-1.9
		c10.1,1.1,16.8,5.7,18.5,16.5c1.2,7.3,4.6,13.5,14.3,13.7c-1.9-11.1-2.5-22.2-10.2-31c-4.7-5.4-5.6-10,1.6-13.2
		c3.4-1.5,3.1-4.8,5.3-8.4c0.5,3.8,0.9,6.2,1.2,8.6c1.2-6.2,3.9-12,3.3-18.4c-0.2-2.2-0.5-5.3,2.8-5.4c4.3-0.2,3.3,3.5,3.4,5.9
		c0.1,2.5,1,5.2-0.9,7.8c-0.8-1.5-1.5-2.7-2.4-4.2c-1.8,7.5-1.5,14.9-6.1,21.6c-2.8,4.1-0.4,9.8,0.4,14.7c1.4,8.9,6,17.2,4.7,26.5
		C975.5,463.9,974.9,463.8,974.3,463.7z"/>
	<path class="st40" d="M856.6,263.3c0.3,1.3,0.1,3.1,0.9,3.8c2.8,2.3,8.3,3.3,3.6,8.4c-3.8,4.1-9.2,6.5-14.5,4.8
		c-7.8-2.5-3.5-9.4-3.6-14.5c0-1.5,4-2.1,1.3-4.6C849.3,256.8,852.9,260.4,856.6,263.3z"/>
	<path class="st67" d="M891.1,384.8c2.6-0.3,4.2,1.7,6.3,2.7c6.4,3.1,11.1,2.4,11.9-6c0.6-6.4,1.9-12.5,5.7-17.9
		c4.1-5.8,2.3-12.1,0.8-18.7c10.4,8.8,11.2,17.6,2.3,25.8c-2.8,2.6-6.1,5.1-5.9,8.8c0.4,8.5-4.7,12.4-11.3,15.5
		C896.9,392.4,893.8,388.8,891.1,384.8z"/>
	<path class="st68" d="M1041.2,564.9c0.4-0.1,0.8-0.1,1.3-0.1c2.4,4.4-1.4,7.6-1.9,11c2.5-3.6,2.3-8.8,4.9-13.1
		c6.4,7.9,4.8,13.2-8.5,28.2c-4,0.1-8.1,0.2-12.1,0.4c-6.8-5-0.9-7.2,2.3-10C1035,578.6,1037.8,571.5,1041.2,564.9z"/>
	<path class="st69" d="M1014.9,476c0-2.1,0-4.2,0-6.3l-0.1,0.1c11.4-22.1,19.7-57.2,17-75.8c6.1,8.3,4.9,15.2,2.9,22.4
		c-4.8,17.9-6.4,36.8-15.6,53.5c-0.9,1.5-0.2,3.9-0.2,6C1017.5,475.9,1016.2,475.9,1014.9,476z"/>
	<path class="st70" d="M1036.9,590.9c3.1-8.7,14.4-14.3,9.5-26.4c-1.1,3.4-1.9,6.7-3.3,9.7c-1.5,3.2-2.6,6.9-8.5,8.9
		c4.2-6.6,6.7-12.2,7.8-18.3c1.1-3.1-0.2-8.5,5.6-7.6c5.6,0.9,3.1,5.9,3.2,9c0.1,10.2-4.1,18.5-12,24.9
		C1038.4,591.1,1037.7,591,1036.9,590.9z"/>
	<path class="st71" d="M877.4,378.6c3.8-0.2,7,1,9.7,3.8c-5.3,7.2-12.1,9.1-20.8,6.9c-4.7-1.2-9.9-0.8-15.8-1.2
		c4.3-5.1,9.7-2.9,14.5-3.2C870,384.5,876.2,386.6,877.4,378.6z"/>
	<path class="st72" d="M830.2,328.4c13.8-5.1,26.7-11.8,38-22.8c-1.4,8.6-3.2,10.8-11.3,14c-8,3.1-16,6.3-22.4,12.5
		C831.9,332.2,831.6,329.7,830.2,328.4z"/>
	<path class="st73" d="M923.4,564.9c1.6,1,4.2,1.8,2,4.2c-5.3,6-10.5,12.4-20.1,9.9C910.2,573,917.5,569.8,923.4,564.9z"/>
	<path class="st74" d="M1027.1,581.4c-0.1,3.5-6.5,5.5-2.3,10c-6.5,5.5-9-3.4-15.2-2.8C1015.2,582.2,1021.3,582.3,1027.1,581.4z"/>
	<path class="st75" d="M822.1,297.8c6.1-3.6,12.3-4.3,18.9-0.9c-1.2,4.4-7.1,3.2-8.7,7.2C829.1,301.8,824.7,301.3,822.1,297.8z"/>
	<path class="st76" d="M893.3,581.4c-0.9,2.1-1.8,4.2-2.7,6.3c-1.5,2.2-4.7,5.4-5.8,2.9c-1.4-3.1-3.9-3.1-5.6-4.8
		c2.1-2,3.9-4.6,7.2-4.8C888.7,580.9,891,581.3,893.3,581.4z"/>
	<path class="st77" d="M797.5,289.7c7.3,0.9,14.5,2.2,20.9,6.2C809.7,299.8,803.5,295.1,797.5,289.7z"/>
	<path class="st31" d="M804.2,263.7c-1.3,4.1,1.2,12.2-8.2,8C797.4,267.6,800.1,265,804.2,263.7z"/>
	<path class="st13" d="M1527.3,619.7c5.5,5.4,11,10.9,16.4,16.3c20.5,21.4,39.2,44.8,64.9,60.5c2.8,4.7-1.9,6.9-2.7,9.9
		c2.8-1.2,2.2-9.2,8.9-5.9c28.5,17.6,55.2,38.7,87.1,50c31.7,11.2,65.6,12,98.5,17.5c-34,5.4-67.9,3.8-101.8,2.5
		c-36.7-1.4-71.5-12-106.4-22c-20.5-5.8-41-11.9-62.4-13.8c-3-3.4-4.4-9-11.3-3.1c-5,4.3-3.2-2.5-4-4.5c-0.9,3.1,1.5,6.8-1,10l0,0
		c-9.4-8.5-9.3-22.4-0.6-30.3c5-4.6,7.9-11.2,12.6-16.3c2.9-3.8,5-8,6.6-12.4c1.4-4,2.8-8.1,2.8-12.5c0.1-1.3-2.3,0.3-1,0
		c0.4-0.1,0.5,0.1,0.5,0.6c0,9.1-4.2,16.6-8.7,24.1c-3.5,5.3-7.8,10.4-12.4,14.4c-8.3,7.3-8.1,15.1-5.2,24.4
		c1.5,4.8,3.9,9.3,4.8,14.2c12.2,13.2,13.2,29.5,13.8,46.2c0.4,10.1-6.5,17.6-16.4,16.8c-3.4-0.3-7,1.7-10.9,2.7
		c-1.6-4.4,1.1-7.5,3.2-10.8c10.7-16.2,10.5-19.3-2.6-34c-9.2-10.3-18.5-20.4-27.8-30.6c-2-2.2-3.7-4.9-7.1-5.2
		c-5.7-7.4-10.9-15-13.8-24.6c1.2,3.1,0.6,6.1,2.9,8.6c3.5,3.7,2.1,7.2-1.6,10.1c-2.3,0.3-4.6,0.3-6.1-1.8
		c-14.6-7.1-24.7-19.8-36-28.7c10,10,25.6,18,25.6,36.9c1,10.6-1.6,21.7,4.9,31.4c1.8,2.6-0.2,4.5-1.2,6.4c-1.6,3-3.9,6.1-3.2,9.4
		c3.6,16.8-11.3,20.4-19.9,28.5c-0.4,0.3-1.3,0.1-2,0.1c-1.4-11.5-2.1-11.7-14.7-3.4c-1.3-6.8,4-8.9,7.8-11.5
		c19.3-13.3,20.6-17,12.3-39c-4.8-12.9-12.4-25.4-14-38.6c-3.2-26.4-21.4-43.1-35.4-62.7c-4.2-5.9-11-10-11.8-18.1
		c7.6-5.7,15.1-11.3,22.7-16.9c0.4-1.3,1.6-2.6,1.6-3.6c-0.9-12.8,8.7-17.3,17.3-22.9c9.4-6.1,16.8-14.4,24.2-22.7
		c2.3-2.6,4.3-5.1,7.7-6.2c18.3,5.3,33.2,16.8,49.3,26.3C1498.2,595.1,1513.4,606.5,1527.3,619.7z"/>
	<path class="st21" d="M1436.1,729c-2-4.2-4.6-9-5.8-12.5c-4.7-13.6-20.7-17.6-23.9-31.6c11.2,14.5,27.4,23.2,40.1,35.9
		C1437.8,717,1435.6,721.3,1436.1,729z"/>
	<path class="st78" d="M1526.2,691.1c-5.8,6.8-6.1,17.8-16.7,21.3c-3.7,1.2-2.3,6.1-1.6,9c1.2,5.4,1.6,11.2,5.6,15.6
		c-0.2,2.1-0.4,4.1-0.6,6.2c-4.7-6-6.3-13.2-7.7-20.4c-1.5-8.2-1-15.6,7.6-20.9c4.7-2.8,8-8.1,11.9-12.2
		C1525.9,689.5,1526.4,690,1526.2,691.1z"/>
	<path class="st79" d="M1452.6,722.6c2.3-8.2-5.6-15.2-2.1-26.1c2.7,12.4,8.7,20.5,15.2,28.4c0.5,0.6-0.4,2.3-0.6,3.5
		C1460.3,727.8,1456.4,725.3,1452.6,722.6z"/>
	<path class="st80" d="M1513.5,737c0.2-6.1-2.4-12.7,3-18.6c2,4.5-2.4,8.3,0,12.8c2.3-3,3.9-7.1,8.3-7.7c0.5,4.2,7.2,5.8,5,11.3
		C1524.3,734.7,1518.6,733.9,1513.5,737z"/>
	<path class="st81" d="M1614.8,700.4c-7.4,0.3-5.8,8.6-11,12.2c-1.2-6.7,5.3-10.5,4.8-16.1C1610.7,697.8,1612.7,699.1,1614.8,700.4z
		"/>
	<path class="st13" d="M1337.4,601c2.6,0.2,5.3,0.2,7.9,0.8c2.2,0.5,5,0.9,5.5,3.4c0.5,2.9-2.2,3.6-4.3,4.5c-2.2,1-4.1,3.6-5.8-1.2
		c-1.6-4.4-3.4,1.8-5.4,0.8c-16.5-11.9-29.8-25.5-26.2-48.4c0.8-5.2-2.7-9.3-4.5-14c-5.8-14.5-18.8-25-22.1-40.8
		c-0.4-4.2,2.9-4,5.2-3.8c5.6,0.3,11.1,1.4,16.5-1.9c3-1.8,3.8,1.3,3.5,3.9c-0.3,2.5-2.6,4.4-2.6,6.5c2.5-4.9,5.3-10.4,1.2-16.1
		c-3.6,9.1-9.5,10.4-28.4,5.9c-5.9-1.2-11.5-2.6-17.8-0.7c-5.8,1.7-12.1-4.8-9.4-7.3c3.9-3.7,3.2-9.7,8.8-12.1
		c12.7-5.4,24.8-12.2,38.7-14c13.9-1.9,29.4,7.4,35.2,20.2c5.5,12.1,7.9,25.8,17.9,35.6c2.2,5.4-1.9,7.4-5.4,8.9
		c-5.5,2.4-9.6,6.8-13.3,8.7c5.1-5.8,15.8-7,20.7-15.7c29.3,3.5,52.8,19.8,77,34.5c-10.6,16.4-24.9,28.7-42,38
		c-3.3,1.8-6.2,2.2-9-0.9c-2.5-2.7-4.6-5.3-0.4-8.2c2.1-1.4,4.3-2.8,5.9-4.7c-1.8,1.9-4,3.4-6.2,4.9c-3.9-3.5-3.9-3.5,0.7-10.8
		c-0.2,0.2-0.4,0.4-0.6,0.6c-2.6,2.8-4,8.5-8.5,7.2c-4.8-1.4-2.7-6.9-2.6-10.6c0.2-5.3-5.4-7-6.2-11.4c-9.5-8.9-17.4-0.7-25.3,2.9
		c-6.6,3.1-11.7,8.3-7.6,16.9c-3.6,4.5-1.7,7.8,2.1,11C1333.2,595.8,1335.9,597.8,1337.4,601z"/>
	<path class="st82" d="M1380.4,587.5c-3.5,2.3-2.6,4.4-0.2,7.2c2.8,3.2,5,2.1,7.9,0.6c13.8-7.4,25.7-17.1,35.5-29.3
		c2-2.5,3.3-5.9,6.7-7.2c0.7,0.1,1.5,0.1,2.2,0.2c-9.9,14.7-22.2,26.9-37.6,35.9c-5.2,3-10.9,5.2-9.1,13.2c0.6,2.6-1.8,4.9-4.1,6.5
		c3.7-8.7,1.1-15.8-6.4-20.7c-11.4-7.5-10.1-20.2-13.8-30.9c9.4,4.2,9.6,12,8,20.6c3.9,0.5,3.7-3.5,5.7-4.6
		c2.9-1.5,1.3-10.3,7.2-5.7c4.6,3.6-2.7,5.6-3.7,8.8c-0.5,1.5-2.7,2.8-2.6,4c0.3,1.7,2.1,0.5,3.3,0.1l0.9,0.3L1380.4,587.5z"/>
	<path class="st83" d="M1337.4,601c-8.1-2.4-11.6-9.4-16.4-15.8c2.1-2.8,6.8,2.8,7.6-2.4c1.9,6.4,8.2,8.7,12.2,13.2
		C1341.6,598.9,1338.5,599.3,1337.4,601z"/>
	<path class="st84" d="M1277.9,500.7c5.4-0.4,10.6-0.1,15.9,0.8c7.8,1.4,11.1-3.1,9.1-10.7c10.3,4.2,10.3,4.3,0.2,28.9
		c-0.8-6.1-0.8-6.1,2.9-18.3c-7.1,7-16.4-0.9-23.8,4.8C1280.9,504.4,1279.4,502.5,1277.9,500.7z"/>
	<path class="st56" d="M1353.3,524.3c0.9,3.7-1.4,5.6-4.1,7.2c-7,4.1-14,8.1-21.5,11.3c5.6-4.5,10.5-9.9,17.4-12.5
		c3.7-1.4,6.6-3.3,6.3-7.9C1352.5,522.5,1353.5,522.7,1353.3,524.3z"/>
	<path class="st85" d="M455.9,697l-0.1,0.9c0.6,1.8,0,2.7-2,2.3c-6.4-13.4-6.7-28.5-12.4-42.1c-1.3-3.1-0.7-7.4,0-10.9
		c0.5-2.6-0.2-7.3,5-6.2c5.4,1.2,2.7,4.3,1.7,7.4c-2.2,6.7-3.4,13.5,0.4,20.2c2.3-3.3,2.5-7.4,4.6-11c-0.5,8-0.9,16-1.4,24
		C455.5,686.1,455.6,691.6,455.9,697z"/>
	<path class="st60" d="M367.2,706.6c-1.7,0.6-3.6,0.3-4.6-1.1c-4.7-6.8-11.7-7.3-18.9-7.2c0,0,0.1,0.1,0.1,0.1
		c-5.4-3.3-9.1-8-10.7-14.2c0.4-1.9,0.7-3.8,1.4-7c4.1,8.4,5.2,18.2,16.7,18.9c-0.4-7-8.8-7.6-9.7-15c2.9,2.1,5,3.6,7.3,5.2
		c2.3-4.1-3-6-1.3-11.4C354.4,686.4,356,699.8,367.2,706.6z"/>
	<path class="st60" d="M399,732.8c0,0,0.2,0.1,0.2,0.1c-7.5-11.6-17.7-21.3-23.1-34.3c-0.8-1.2-0.6-2.3,0.5-3.3
		c7.5,11.2,13.9,23.3,23.5,33.1C401.9,730.1,401.8,732,399,732.8z"/>
	<path class="st86" d="M453.8,700.2c0.7-0.8,1.3-1.5,2-2.3c5.8,10.1,0.5,21.7,4.7,32C452.6,721.2,456.7,709.9,453.8,700.2z"/>
	<path class="st81" d="M376.7,695.4c-0.2,1.1-0.3,2.2-0.5,3.3c-6-9.1-16.8-13.9-22-23.7C361.4,682.1,371.3,686.2,376.7,695.4z"/>
	<path class="st87" d="M547,744.4c-0.1-10.2,14.2-15.2,9.5-27C563.1,729.9,552.3,736.1,547,744.4z"/>
	<path class="st30" d="M392.5,741c-3.3-0.5-4-3.5-4.5-5.8c-1.8-8.5-6.9-14.8-12.9-20.6c6.2-0.8,8.9,4.1,11,8.2
		C389,728.5,390.4,734.9,392.5,741z"/>
	<path class="st86" d="M455.9,697c-2.4-4.9-3.8-10-4.2-15.5c5.1,1.3,1.4-5.2,5.4-5.5C457.8,683.2,458,690.2,455.9,697z"/>
	<path class="st78" d="M576.7,733c7.1-1.9,7.2-9.6,11.8-13.6c-2.1,5.9-0.3,15.1-11.6,13.4C576.9,732.9,576.7,733,576.7,733z"/>
	<path class="st88" d="M333.2,684.4c3.6,4.7,7.2,9.4,10.7,14.2c-5.9-0.4-8.7-4.4-10-9.4c-0.8-2.8-1.8-3-4-2
		C330.1,685.2,331.3,684.4,333.2,684.4z"/>
	<path class="st89" d="M504.1,709.7c-0.1-1.1-0.2-2.2-0.3-3.3c2.9-4.6,5.8-9.3,8.8-13.9C511.8,699.4,508.5,704.8,504.1,709.7z"/>
	<path class="st26" d="M416.6,538.6c7.3,1.8,8.6,10.8,15.9,13.2c-1-7-1.8-13.7-2.7-20.3c4.5,8.4,6.5,17.1,4.7,28
		c-6.5-7.8-14.8-12-17.7-21.1C416.8,538.4,416.6,538.6,416.6,538.6z"/>
	<path class="st41" d="M398.9,572.9c-0.7,0-1.5,0.1-2.2,0.1c-3.4-14.4-6.9-28.9-10.3-43.3C393.1,543.4,396.8,557.9,398.9,572.9z"/>
	<path class="st43" d="M389.9,587.8c-4.6-5.8-6.3-12.5-6-20c2.4,6.3,4.8,12.6,7.2,18.9C390.7,587,390.3,587.3,389.9,587.8z"/>
	<path class="st90" d="M438.5,578.9c-0.5-0.7-1-1.3-1.5-2c0.9-4.3,1.8-8.6,2.9-13.3C445.7,569.7,439.4,574,438.5,578.9z"/>
	<path class="st52" d="M297.8,603c8.1,6.6,17.1,12.4,19.8,23.7C311.5,618.3,304,611.2,297.8,603z"/>
	<path class="st91" d="M327.8,623.6c-8.3-4-9.6-13.5-15-19.7c-0.1-1,0.3-1.4,1.3-1.1c5.7,6.2,10.6,13,13.6,21
		C327.6,623.8,327.8,623.6,327.8,623.6z"/>
	<path class="st26" d="M312.8,603.9c-5.2-5.5-11.1-10.2-14.4-17.4c5.7,4.9,11.7,9.5,15.6,16.3C313.6,603.1,313.2,603.5,312.8,603.9z
		"/>
	<path class="st49" d="M268.7,615.5c5.3,2.2,9.7,5.5,11.2,8.4C277.3,622,273,618.7,268.7,615.5z"/>
	<path class="st26" d="M318.9,591.7c-4-4.2-8-8.4-11.9-12.6c0.6-0.5,1.3-1.1,1.9-1.6c4.4,3.8,8.7,7.6,11.2,13.1
		C319.7,591,319.3,591.4,318.9,591.7z"/>
	<path class="st92" d="M378.3,754.7c-8.8-2.2-6.9-11.5-11.6-16.6C375,740.5,372.5,750.6,378.3,754.7z"/>
	<path class="st91" d="M507.9,602.4c1.9-6.8,5.2-13,7.4-19.6C516.8,590.9,512.2,596.7,507.9,602.4z"/>
	<path class="st31" d="M345.6,577.1c-5.4-3.8-7.8-9.2-7.5-15.8C340.6,566.5,343.1,571.8,345.6,577.1z"/>
	<path class="st74" d="M549.4,630.4c0.7-7.2,4.5-13.3,8.4-19.4C557.4,618.3,553.1,624.2,549.4,630.4z"/>
	<path class="st74" d="M562.3,619.4c-0.5-0.7-1.1-1.3-1.6-2c2.2-5.7,4.4-11.4,6.6-17.1C568.4,607.6,564.5,613.2,562.3,619.4z"/>
	<path class="st59" d="M562.9,628.5c-0.1-1-0.2-2-0.3-3c2.3-4.3,4.6-8.6,7.9-14.8C570.4,619.1,567,624,562.9,628.5z"/>
	<path class="st46" d="M569.1,648.6c1.5-4.9,5.9-6.5,9.1-12C576.2,644.5,576.2,644.5,569.1,648.6z"/>
	<path class="st17" d="M520.4,601.9c1.3-0.2,2.6-0.4,3.9-0.6c-0.3,5.3-3.7,9-6.9,12.8C517.6,609.8,520.8,606.2,520.4,601.9z"/>
	<path class="st93" d="M1014.8,469.7c-3.7,5.7-9,10.9-6.2,19c-5.6-5.5-5.8-12.3-1.5-16.8c4.6-4.9,4.5-9.5,4.1-15.1
		c-0.8-10.1-4.6-20.2-1.2-30.9c4.3,1.5,1.3,5.6,5.1,8.6c0-14.2,0-27.3,0-41.3c4.7,2.2,5.2,6.6,4.8,9.3c-1.4,8.7,1.5,18.4-1.7,25.9
		c-5.9,13.9-3.1,27.6-3.5,41.4C1014.7,469.8,1014.8,469.7,1014.8,469.7z"/>
	<path class="st69" d="M889.2,310.9c-4.2,10.6-13.6,12.7-24.4,14.6c5.5-8.3,15.1-11.2,20.1-18.8c0.2-0.2,2.8,1.2,4.3,1.8
		C890.4,309.2,890.5,310,889.2,310.9z"/>
	<path class="st94" d="M1044.6,529.3c-9-9.7-24.9-8.4-34-21.2c7.9,2.6,12.1,11.9,20.3,5.3c1.1-0.9,2.8,2.8,4.1,4.6
		C1038,521.9,1041.4,525.5,1044.6,529.3z"/>
	<path class="st95" d="M993.5,458c-0.7-17.3-1.1-34.6-4.6-51.7C996.4,423,994.5,440.6,993.5,458z"/>
	<path class="st49" d="M1063.6,462.9c9.9,11.1,5.7,25.9,11.4,38.1C1065.3,489.9,1070,475,1063.6,462.9z"/>
	<path class="st96" d="M992.4,462.2c-0.3,5.3,0.7,10.4,1.8,15.5c0.5,2.3-0.2,4.9-2.6,6c-1.7,0.8-3-0.8-4.3-1.9
		c-2.2-1.9-2.5-3.7-0.3-5.8C991,472.3,989.9,466.9,992.4,462.2z"/>
	<path class="st97" d="M891.8,375.8c-1.4-9.1-0.7-17.9,4.5-26.2c-0.6,8.7-1.2,17.4-1.9,26.1C893.5,375.7,892.6,375.7,891.8,375.8z"
		/>
	<path class="st52" d="M1061.3,458.4c-7.5-9.8-13.1-18.8-23.5-26.8C1048.7,435.5,1057.4,445.6,1061.3,458.4z"/>
	<path class="st98" d="M901,326.8c0,4.3,0.5,7.3-0.1,10c-0.5,2.2-2.3,4.5-5,4.1c-1.8-0.2-4.3-1.5-4.9-2.9c-1-2.4,2.4-2.4,3.6-3.9
		C896.3,331.7,898.4,329.6,901,326.8z"/>
	<path class="st90" d="M889.2,310.9c0-0.8,0-1.6-0.1-2.5c7.8,0.1,3.9,5.6,3.3,8.5c-0.9,4.1-3.6,7.5-8.9,9.5
		C885.5,320.4,893.9,317.9,889.2,310.9z"/>
	<path class="st99" d="M826.5,318.1c6.3-5.4,11.9-3.8,16.2-6.2C839.1,316.3,834.4,317.5,826.5,318.1z"/>
	<path class="st52" d="M935.4,535.5c-2.5-6.6-5.1-13.2-7.6-19.7C933.9,521.2,936.6,527.9,935.4,535.5z"/>
	<path class="st74" d="M935.9,566.9c-0.5-7.8-0.4-13.5,3.2-19.7C940.4,554.2,939.9,560.1,935.9,566.9z"/>
	<path class="st100" d="M1445,663.4c2,2.5,4,5.1,6,7.6c-4.7-19.3-9.2-38.2,2.8-56.4c-1,2.7-1.9,5.3-2.9,8c-4,10.8-2,21.1,1.9,31.7
		c4.7,12.7,1,25.1-3.1,37.4c-0.6-5.9-0.6-11.9-6.3-16.1c3.6-1.8,4,1.9,7.1,2.1c-2.5-4.7-4.7-9-7-13.2
		C1443.7,663.6,1444.2,663.2,1445,663.4z"/>
	<path class="st34" d="M1502.7,611.5c-12.6-8.4-24.5-13.6-38.5-10.4c-3,0.7-4.7-1.2-5.1-3.6c-0.6-3,2.3-4.2,4.4-4.2
		c5.6,0,11.3-3,16.4,3.4c2.7,3.4,9.1,3.6,13.5,5.8C1496.9,604.1,1500.8,605.5,1502.7,611.5z"/>
	<path class="st30" d="M1500.7,681.7c5.5-9.9,10.5-19.9,7.7-32.3c4.2,0.8,2.9,3.7,3.7,5.5c0.5,1.2,0.5,3,1.4,3.7
		c3.1,2.3,3.2,2.2-0.8,6.7c-4.6,5.2-4.5,13.4-11,17.5C1500.7,683,1500.3,682.7,1500.7,681.7z"/>
	<path class="st101" d="M1453.5,642c-3.1-13.2,2-21.5,6.8-32.6c1.8,8.9-5.2,13.3-2.5,21.4c2.3-4.1,4.1-7.3,5.9-10.5
		c1.2,1,2.5,2,3.7,3.1C1462.2,628.2,1458.6,634.2,1453.5,642z"/>
	<path class="st102" d="M1501.7,682.7c-0.3,1.5-0.6,2.9-0.9,4.4c0.2,2.7-1.9,3-3.8,3.4c-4.1,5.6-0.9,12.1-2.1,18.3
		c-6.8-8.9-4.4-19.7,5.7-27.2C1501,682,1501.4,682.4,1501.7,682.7z"/>
	<path class="st48" d="M1497.1,690.6c1.3-1.1,2.5-2.3,3.8-3.4c13.8-7.9,13.9-8.1,18-19.1c2.3,7.1-1.4,11.1-5.7,14.9
		c-4.5,3.9-10.3,5.8-14.5,10.5C1497,695.2,1497.6,691.6,1497.1,690.6z"/>
	<path class="st64" d="M1478.1,610.6c9.4-6.3,16.1-1.4,22.3,5.4C1493.4,612.3,1486.1,610,1478.1,610.6z"/>
	<path class="st60" d="M1524.8,689.7c4.9-8.4,8-17.4,10.2-26.8c1.3,10.7-2.2,19.9-8.7,28.2C1525.8,690.6,1525.3,690.2,1524.8,689.7z
		"/>
	<path class="st78" d="M1443.7,664.5c-4.9-7.1-8.4-14.6-8.2-23.6c3.2,7.5,6.3,15,9.5,22.5C1444.7,663.9,1444.3,664.2,1443.7,664.5z"
		/>
	<path class="st103" d="M1395.2,608.8c6.9-3,15,0.7,21.9-3.5C1410.8,611.9,1402.8,608.8,1395.2,608.8z"/>
	<path class="st34" d="M1528.7,693.6c2.7-4.4,5.4-8.9,8.1-13.3C1537.2,686.6,1533.9,690.7,1528.7,693.6z"/>
	<path class="st104" d="M1657.5,760c-2.7-5.2-2.6-8.5,0.8-13.4C1659.9,751.6,1660.1,754.9,1657.5,760z"/>
	<path class="st105" d="M1292.6,476.3c-0.2,3.7-3,4.7-5.6,4.9c-2.5,0.2-5.8,0.2-6.6-3.1c-1-3.7,2.3-4.5,4.8-5.2
		C1288.5,472,1291,473.5,1292.6,476.3z"/>
	<path class="st38" d="M1287.6,490.7c-8.2,4-16.6-2.4-24.8,0.8C1270.9,484.3,1279.3,491.5,1287.6,490.7z"/>
	<path class="st21" d="M1379.4,586.2c3.7-2.9,6.4-7.3,13.7-10.1c-5,5.8-7.9,9.7-12.7,11.4C1379.7,587.3,1379.4,586.9,1379.4,586.2z"
		/>
</g>
<path class="st106" d="M536.3,556c22,5.9,97.5-37.5,75-111.2"/>
<path class="st106" d="M1382.4,599.3c44.9-16.5,86.9-87.2,81.1-146.3"/>
</svg>
