<svg xmlns="http://www.w3.org/2000/svg" xmlns:xlink="http://www.w3.org/1999/xlink" viewBox="0 0 1015.62 1080"><defs><style>.cls-1{font-size:15.02px;font-family:Roboto-Regular, Roboto;}.cls-2{letter-spacing:-0.01em;}.cls-3{letter-spacing:-0.01em;}.cls-4{letter-spacing:-0.01em;}.cls-5{fill:none;stroke:#000;stroke-miterlimit:10;stroke-width:1.13px;}.cls-6{letter-spacing:-0.02em;}.cls-7{letter-spacing:-0.01em;}.cls-8{letter-spacing:-0.01em;}.cls-9{letter-spacing:-0.01em;}.cls-10{font-size:14.17px;font-family:Roboto-LightItalic, Roboto;font-weight:300;font-style:italic;}.cls-11{letter-spacing:-0.02em;}.cls-12{letter-spacing:-0.01em;}.cls-13{letter-spacing:0.01em;}.cls-14{letter-spacing:-0.01em;}</style></defs><g id="Layer_2" data-name="Layer 2"><g id="Layer_1-2" data-name="Layer 1"><image width="978" height="1040" transform="scale(1.04)" xlink:href="body.png"/><text class="cls-1" transform="translate(855 210.11)">Alien<tspan class="cls-2" x="33.34" y="0">t</tspan><tspan x="38.1" y="0">o a</tspan><tspan class="cls-3" x="58.56" y="0">t</tspan><tspan x="63.32" y="0">ómico</tspan></text><text class="cls-1" transform="translate(827.12 56.8)">Ce<tspan class="cls-4" x="17.74" y="0">r</tspan><tspan x="22.68" y="0">eb</tspan><tspan class="cls-3" x="39.07" y="0">r</tspan><tspan x="44.01" y="0">o pequeño</tspan></text><path class="cls-5" d="M793,67.63c4.68-8.51,12.26-15.21,27.41-15.21"/><line class="cls-5" x1="859.12" y1="213.26" x2="859.12" y2="235.62"/><text class="cls-1" transform="translate(712.04 306.76)">Bolsas de u<tspan class="cls-6" x="77.39" y="0">r</tspan><tspan x="82.18" y="0">anio</tspan></text><path class="cls-5" d="M673.46,330.22c30.13,5.67,47.68-9.4,51.22-17"/><text class="cls-1" transform="translate(769.96 353.2)">Esternón</text><text class="cls-1" transform="translate(781.96 384.83)">Co<tspan class="cls-6" x="18.35" y="0">r</tspan><tspan x="23.14" y="0">a</tspan><tspan class="cls-7" x="31.31" y="0">z</tspan><tspan x="38.64" y="0">ón</tspan></text><line class="cls-5" x1="652.49" y1="348.72" x2="765.61" y2="348.72"/><line class="cls-5" x1="674.44" y1="377.69" x2="778.53" y2="377.69"/><text class="cls-1" transform="translate(782.83 557.49)">Pulmones</text><path class="cls-5" d="M677.05,450.54C691,495.08,715.7,540,778.53,552.13"/><path class="cls-5" d="M655.7,559.86c51.9,4.79,82.45,26.5,98.28,43.8"/><path class="cls-5" d="M727.79,682.83c50.74-8.2,66.32,19.39,76,27.59"/><line class="cls-5" x1="732.6" y1="790.58" x2="799.7" y2="790.58"/><path class="cls-5" d="M554.8,112.3c58,22.12,83.48,77.22,97.26,102.69"/><path class="cls-5" d="M331.05,362.76c0,14.76,11,26.71,24.63,26.71"/><path class="cls-5" d="M221.69,582.33s-28,9.18-31.73,38.4"/><text class="cls-1" transform="translate(804.8 728.46)">Músculos</text><text class="cls-1" transform="translate(804.8 796.32)">Huesos</text><text class="cls-1" transform="translate(751.98 617.99)">Calde<tspan class="cls-6" x="38.03" y="0">r</tspan><tspan x="42.82" y="0">a a</tspan><tspan class="cls-2" x="62.88" y="0">t</tspan><tspan x="67.64" y="0">ómica</tspan></text><text class="cls-1" transform="translate(186.96 338.9)">Desca<tspan class="cls-4" x="41.59" y="0">r</tspan><tspan x="46.54" y="0">ga eléctrica a </tspan><tspan x="0" y="18.03">t</tspan><tspan class="cls-6" x="4.91" y="18.03">r</tspan><tspan class="cls-8" x="9.7" y="18.03">a</tspan><tspan class="cls-9" x="17.76" y="18.03">v</tspan><tspan x="24.94" y="18.03">és de placas dorsales</tspan></text><text class="cls-1" transform="translate(93.16 635.56)">Escamas de carbono <tspan x="0" y="18.03">que cub</tspan><tspan class="cls-4" x="53.07" y="18.03">r</tspan><tspan x="58.02" y="18.03">en el cuerpo</tspan></text><text class="cls-10" transform="translate(126.27 675.61)">La textu<tspan class="cls-11" x="48.67" y="0">r</tspan><tspan x="53.09" y="0">a de la </tspan><tspan x="0" y="18.43">piel se inspi</tspan><tspan class="cls-12" x="70.82" y="18.43">r</tspan><tspan x="75.37" y="18.43">ó </tspan><tspan x="0" y="36.85">en las cicatrices </tspan><tspan x="0" y="55.28">queloides de los </tspan><tspan x="0" y="73.7">supe</tspan><tspan class="cls-13" x="29.51" y="73.7">r</tspan><tspan x="34.33" y="73.7">vivientes </tspan><tspan x="0" y="92.13">de Hi</tspan><tspan class="cls-12" x="31.24" y="92.13">r</tspan><tspan x="35.79" y="92.13">oshima</tspan></text><text class="cls-10" transform="translate(785.04 574.59)">Puede <tspan class="cls-14" x="41.61" y="0">r</tspan><tspan x="46.17" y="0">espi</tspan><tspan class="cls-11" x="71.21" y="0">r</tspan><tspan x="75.63" y="0">ar bajo el agua</tspan></text></g></g></svg>