<?xml version="1.0" encoding="utf-8"?>
<!-- Generator: Adobe Illustrator 25.3.1, SVG Export Plug-In . SVG Version: 6.00 Build 0)  -->
<svg version="1.1" id="Layer_1" xmlns="http://www.w3.org/2000/svg" xmlns:xlink="http://www.w3.org/1999/xlink" x="0px" y="0px"
	 viewBox="0 0 1920 1080" style="enable-background:new 0 0 1920 1080;" xml:space="preserve">
<style type="text/css">
	.st0{fill:#B2685F;}
</style>
<g>
	<path class="st0" d="M744.1,806.8c-1.7,2-3.3,4.1-5,6.1c0.7,0.6,1.5,1.2,2.2,1.8c1.8-1.7,3.6-3.5,5.4-5.2c1.6-1.7,3.3-3.4,4.9-5.2
		c-0.6-0.7-1.2-1.5-1.9-2.2C747.9,803.7,746,805.3,744.1,806.8z M1701,405c39.9-1.4,79.8-2.6,119.7-4.5c5.3-0.3,12.3-3.1,15.1-7.2
		c3.6-5.2,3.6-12.9,4.4-16c-5.2-11.1-12.2-20-13.3-29.6c-1.8-16-10.1-17.5-23.4-18c-32.4-1.3-64.8-4.3-97.2-6.8
		c-0.4,0-0.7-1.9-1.7-5c37,0,73.3,0,110.9,0c-14.8-22-31.5-33.4-57.5-32c-28.2,1.5-56.7-0.4-85-2.4c-55.9-3.9-112.1-6.6-167.6-14.2
		c-55.5-7.7-110.2-20.9-165.3-31.3c-6.8-1.3-14-0.2-21-0.2c0,1.8-0.1,3.5-0.1,5.3c12.5,3.6,25,7.2,37.6,10.8c-2.8,3.9-5,5-6.9,4.7
		c-26-5.4-51.9-10.9-77.8-16.7c-10.4-2.3-20.2-4.8-20.6,13.5c-16.9-12.3-47.6,1.3-45.8-32.2c-13.9-3.7-23.4-10-26.8-24.5
		c-0.8-3.5-9.7-8.8-11.6-7.7c-13.8,8-26.8,17.5-40.2,26.6c-0.7-1.7-2.4-5.6-4.7-11.1c-4.4,9-7.9,16.3-12.5,25.7
		c-5.1-12.8-9.1-22.7-13.3-33.1c-5.8,1.1-10.6,2-15.4,2.9c-4.8-9.1-9-17.2-12.8-24.4c-19.8-1-36.7,24.8-58-1.3
		c-1.3,24.9-2.3,45.9-3.4,66.9c1.9,0.7,3.9,1.4,5.8,2.1c7.4-13.1,14.8-26.2,22.1-39.3c1.6,0.3,3.1,0.5,4.7,0.8c0,33,0,66,0,99
		c13.6-10,23-22.6,41.1-5.3c10.2-14.6,19.5-27.9,31.1-44.5c3.4,1.5,14.6,3.8,15.2,7.5c1.2,8.2-3,17.2-5.4,27.4
		c5.6-1.8,9.9-3.2,14.1-4.5c5.4,9,10,16.9,13,22c9.1,0,15.8,0,25.7,0c2.1-3.2,6.2-10.1,10.8-16.7c24-34.3,13.1-37.9,57.9-18.6
		c22.1,9.5,43.4,20.3,66.8,26.4c7.5,1.9,14.9,4.1,22.3,6.2c-0.2,1.7-0.3,3.4-0.5,5.1c-17.2,0-34.4,0-56.7,0c13.1,8,21.4,13,29.5,18
		c-23.4,14.1-45.8,11.1-68.4,4.7c-3.3-0.9-7-2.1-10.2-1.4c-8.6,1.7-23.2-12.9-25.1,4.6c-1.7,15.4,15.3,9.9,24.2,11.4
		c29.6,5.1,51.2,23.5,78.4,39.8c-8,2.5-11,3.5-14,4.4c32.3,7.8,62.5,20.3,93.8,28.6c38.4,10.2,77.4,22.2,116.6,24
		c79.8,3.7,159.9,1.5,239.8,0.8c17.9-0.2,35.8-4.3,53.7-6.6c-0.1-1.6-0.1-3.1-0.2-4.7c-42.9-2-85.8-4-132.2-6.1
		c33.6-8.5,66.7,5.1,95.6-10.3c-0.1-2.3-0.3-4.7-0.4-7c-18.2,0-36.4,0-54.6,0C1701.2,408.9,1701.1,406.9,1701,405z M1563.7,885.6
		c0.7,0.9,1.5,1.7,2.3,2.4c-1.3,8.2-0.3,13.3,10.2,15.1c11.2,1.9,21.9,7.5,33.5,11.8c4.9-6.8,10.7-14.9,16.6-23.1
		c6.6,5.1,5.2,19.9,18.3,12.2c0,0,1.1,1,1.1,1c0.2,4.4,0.4,8.8,0.7,13.5c26.4-9.4,32.9-14.7,44.8-36.3
		c25.1-45.6,50.1-91.2,75.2-136.8c29-52.9,60.9-103.1,125.7-127c-12.8-1.5-21.1-2.6-29.4-3.6c0-1,0.1-2.1,0.1-3.1
		c8.1-2.2,16.2-4.5,25.1-6.9c-3.6-3.2-6.6-6-10.4-9.5c6.4-3.1,11.3-5.5,16.5-8c-4.3-4.1-7.9-7.4-12.1-11.3c13.7-4,26-7.6,38.2-11.1
		c-0.3-2.2-0.7-4.4-1-6.6c-11.6,0.6-23.3,1.2-37.3,1.9c8.7-9.8,15.6-17.5,23.3-26.2c-4.9-4.3-12.8-8.2-12.5-11.5
		c1.1-14.4-9.5-15.7-18.4-18.8c-8-2.8-16.3-4.5-25.3-7c3.7-4.4,7.1-8.3,11.5-13.5c-7.7,0.4-13.3,0.7-20.1,1.1
		c3.7-4.3,6.3-7.4,11.7-13.8c-10.5,0.7-17.3,2.1-23.8,1.3c-6.9-0.9-13.6-3.8-20.3-5.9c-6.9-2.2-14.1-7.3-20.6-6.4
		c-67.1,8.5-134,18.2-201.1,26.9c-27.4,3.6-54.9,5.4-82.4,8.4c-12,1.3-23.9,3.7-35.8,5c-19.6,2.2-39.3,3.8-59,5.7
		c-0.1,2.6-0.3,5.2-0.4,7.8c20.3,2.9,40.6,5.8,60.9,8.8c-25,0.3-44.8,22.6-70.3,15.5c-1.9-0.5-7.5,4.6-7.6,7.2
		c-0.1,3.6,2.6,9.5,5.4,10.6c8.6,3.1,17.9,4.3,29.5,6.8c-9.3,4.3-16.2,7.4-23.5,10.8c6.2,2.3,11.3,4.3,17.4,6.6
		c-4.3,6.8-7.4,11.7-11.1,17.5c7.2,1.4,12.6,2.5,21.5,4.2c-11.4,2.3-19.1,3.9-26.9,5.4c0,0.8,0,1.5,0.1,2.3c25.8,4,51.6,8,78.4,12.1
		c-6.7,20-20.6,9.1-30.8,9c-11.5,0-23-2.1-34.6-3.3c-0.2,3-0.4,6-0.6,9c58,4.3,115.9,8.6,172.5,12.7c-2.6,3.8-6.6,9.4-11.3,16.1
		c22.5,4.1,17.4-32.7,41.9-21.4c-12.8,18.9-26.3,37.6-38.3,57.2c-5.2,8.5-8.1,18.6-11.1,28.2c-2.9,9.2-3.7,19.1-7.1,28
		c-10.7,27.9-22.3,55.4-34,84.3c32.2,8.1,20.9,31.8,20.4,53.1C1554.9,890.6,1559.3,888.1,1563.7,885.6z M1294.3,662.4
		c20.4-7.3,40.7-14.6,61.1-21.9c-0.3-1-0.5-2-0.8-3c-7-0.5-14-0.9-21-1.4c-0.3-1-0.7-2.1-1-3.1c12.9-7.4,25.8-14.8,38.8-22.3
		c-0.4-1.2-0.8-2.4-1.2-3.6c-6.3-0.6-12.6-1.1-22.1-2c6.6-4.4,10.5-7,16.8-11.2c-18.4-4.3-33.9-8-49.4-11.6c0.1-1.5,0.3-3,0.4-4.5
		c19.3-2.9,38.6-5.9,58.7-8.9c-8.7-9.3-15.7-17.6-23.5-25c-27.3-26-58.7-38.1-96.7-27.6c-74.4,20.4-146.9,45.3-212.5,87.1
		c-17.1,10.9-35.5,15.3-52.8,10c4.7-4.9,8.8-12,14.9-14.8c6.9-3.1,15.6-2.4,24.1-3.4c-10.7-34.2-41.4-18.1-65.3-25.7
		c16.6-1.9,30.6-3.5,44.6-5.1c0-0.7-0.1-1.4-0.1-2.1c-8.4-1.7-16.8-3.4-25.2-5.1c0.1-0.9,0.2-1.9,0.3-2.8
		c10.1-3.1,20.3-6.3,30.4-9.4c-0.3-1.6-0.6-3.2-1-4.8c-12.5,0-25,0.2-37.4-0.1c-4.4-0.1-11.7-0.4-12.5-2.6
		c-5.4-14.4-17.4-11.5-27.9-11.6c-27.7-0.1-55.4,0.5-83.1,0.7c-3.7,0-7.5-1.7-11.1-1.4c-8.3,0.5-16.7,1.2-24.7,3.2
		c-1.8,0.5-2.2,6.8-3.3,10.5c-28.1,3.4-28.5,3.7-19.7,16.9c-38.8,17.2-38.8,17.2-41.4,25.5c9,1.9,18,3.8,25.9,5.5
		C781,619.6,745,609,733,627.1c6.5,3.2,12,5.9,18.9,9.3c-10.2,15.8,0.8,19.2,13.8,21.5c24.5,4.4,48.8,9.5,73.4,13.1
		c21.3,3.2,42.8,4.8,68.5,7.6c-8.8,6.6-13.8,10.4-18.8,14.1c-37.6,27.8-75.3,55.5-112.9,83.3c-7.6,7.2-15.3,14.4-22.9,21.6
		c1.4,1.3,2.7,2.6,4.1,3.9c6.4-6.1,12.8-12.3,19.2-18.4c3.5,3.1,7,6.2,9,8c14.9-10,29.4-19.7,43.9-29.4c1.8,2.2,3.6,4.4,5.4,6.6
		c-13,11.5-26.7,22.4-38.8,34.7c-5.8,5.9-8.6,14.5-12.8,21.9c-0.8,0.3-1.5,0.6-2.3,0.9c0.2,0.4,0.5,0.9,0.7,1.3
		c0.5-0.8,1-1.5,1.6-2.3c7.5-6.6,15.1-13.3,22.6-19.9c1.4,0.8,2.7,1.6,4.1,2.4c-9,27.5-29,49.5-40.2,77.3
		c14.9-12.2,29.7-24.3,44.6-36.5c-1.7,23.6-23.5,37.2-25.1,59c1.6,1,3.2,2,4.8,3c8.6-7.1,17.1-14.3,26.8-22.3
		c1,6.5,1.7,11.3,2.4,15.6c13.7-0.7,26.4-0.5,38.7-2.3c7.2-1.1,14.4-4.6,20.8-8.3c5.8-3.4,10.2-9.3,15.9-13
		c36.1-23.9,72.3-47.8,108.8-71.3c56.3-36.2,111.4-74.7,175.7-96.5c23.5-8,46.8-16.7,70-25.3c0.5-0.2-0.1-3.3-0.3-5
		c0-1.9,0-3.8,0-5.7c7.5-2,15.1-4,22.6-6c-0.4,3-0.8,6-1.3,9c0.8,0,1.5,0.1,2.3,0.1c-0.2-3.1-0.5-6.1-0.7-9.2
		c1.2-0.7,2.5-1.4,3.7-2.1c1.9,3.8,3.8,7.6,5.8,11.4C1285.8,671.7,1305.9,675.3,1294.3,662.4z M208.9,255.6c0-0.9,0-1.7,0-2.6
		c-0.6,0.1-1.1,0.1-1.7,0.2c0.7,0.7,1.3,1.5,2,2.2c-5.8,2.3-11.7,6.8-17.4,6.6c-24.3-0.7-48.5-2.8-72.8-4.2
		c-4.7-0.3-9.5,0.8-14.2,1.2c-0.1,1.9-0.2,3.9-0.3,5.8c9.3,2,18.7,4.1,28,6.1c0.1,2.2,0.2,4.4,0.4,6.5C105.8,280.1,80,291,51,285
		c10.6,4.8,21.7,9.2,31.6,7.4c23.3-4.3,43.2,2.5,62.8,12.6c0.1,1.7,0.1,3.4,0.2,5.2c-12.9,1-25.9,2.1-36.7,2.9
		c6.4,6.2,14.5,14,22.5,21.7c-0.9,1.4-1.9,2.9-2.8,4.3c-18.2,0-36.3,0-57.4,0c4.4,2.9,5.7,4.2,7.3,4.6c2.8,0.8,5.7,1.3,8.5,1.5
		c36.7,2.5,61.8,23.8,85.3,49.6c14.7,16.2,30.9,30.2,55.5,34.8c55.7,10.4,114.1,9,166.6,34.3c5.5,2.6,11.4,11.1,11.5,17
		c0.6,23.3-0.2,46.7-2.2,70c-1.8,20-5.6,39.8-9.3,59.5c-0.7,3.8-4.6,9.3-7.8,9.8c-11.2,1.9-22.6,2.8-34,2.6
		c-27.8-0.7-55.6-1-83.2-3.7c-31.9-3.1-63.9-2.7-95.6-13.3c-35.7-11.9-70.3,3.9-107.7,17.1c8.9,5.2,14,7.8,18.7,11
		c11.2,7.6,9.1,11.9-8.6,15.6c6.3,5.1,12.2,10,18.9,15.5c-10.9,3.8-20,6.9-29,10c0.3,2,0.6,4.1,0.9,6.1c13.7,1.1,27.4,2.1,41.7,3.3
		c-3.7,22.1-23,15.1-33.5,20.7c-0.8,21.7-20.4,17.5-31.3,23.7c-12.4,7-26.3,11.4-43.9,18.8c20.2,3.2,35.2,4.2,49.1,8.5
		c7.8,2.4,13.9,10.5,20.7,16c-6.4,5.4-12.8,10.8-19.2,16.2c-1.6,1.4-3.5,2.5-5.2,3.7c0.1,1.9,0.3,3.7,0.4,5.6
		c36,2.2,72.1,7,108.1,6.1c81.4-2.1,161.7,4.9,240.4,25.5c14.4,3.8,27.6,12.2,42.8,19.1c4.6-6.9,10.9-16.5,17.3-26.2
		c3.5,2.6,6.6,4.9,10,7.3c5.7-9.5,11-18.4,17.5-29.1c2.8,12.4,4.9,21.7,6.9,31c1.9,0.3,3.8,0.6,5.7,0.8c4.3-18.4,8.6-36.8,13.3-57.1
		c3.9,12.1,7.1,22.2,10.4,32.4c1.3,0.1,2.6,0.3,3.9,0.4c5.8-14.5,11.6-28.9,17.7-44.2c2.6,3.3,4.2,5.4,7.8,10
		c4.5-12.5,11.5-23,11.8-33.7c1.9-66.9,16.3-131.6,30.8-196.5c3.9-17.3,4.6-37.5-0.6-54.2c-15.9-51.8-35.2-102.6-53.7-153.6
		c-2.2-6.1-7.1-15.5-11.4-15.9c-21.8-2-35.1-20-53.3-26.3c-30.6-10.6-63.2-15.6-95.1-22.2c-11.7-2.4-24.1-1.2-35.7-3.9
		c-41.7-9.7-83.1-20.4-124.6-30.5c-5.3-1.3-11-1.1-16.5-1.6c-0.2,1.4-0.5,2.8-0.7,4.2c9.3,4.7,18.7,9.4,32.6,16.3
		C220,255.6,214.4,255.6,208.9,255.6z M720,291c7-19.5,15.4-37.4,19.6-56.1c5.3-23.4-14.1-40.4-35.7-34.3
		c-1.7-7.3-3.4-14.6-5.7-24.9c-28.9,24.1-34.6,54.2-36.1,81.2c4.4,11.1,9.3,18.9,10.4,27.2c1.4,10.1,6.1,12.5,15,11.8
		c39.2-2.9,68.6,21.2,101,36.8c1.9,0.9,4.2,3.3,4.3,5.1c0.9,14.4,12.5,16.4,22.7,20c3.3,1.2,6.6,2.1,9.8,3.5
		c2.5,1.1,4.6,2.9,8.8,5.5c-13.9,1.7-30.3-9.8-32,9.1c-17.3,1.1-33,2.1-49.7,3.1c17,10.1,31.6,18.8,46.2,27.4
		c-0.9,1.6-1.7,3.1-2.6,4.7c-9.4-1.2-18.9-2.4-26.1-3.3c41.9,25.3,84.7,51.1,127.1,76.7c0-2.6,0-6.6,0-13.4
		c15.7,10.8,29.4,20.2,43,29.6c-0.6,1.6-1.2,3.2-1.9,4.8c-23.8,1.3-47.7,2.6-71.5,4c0,0.9,0,1.8,0,2.8c33.8,0,67.6,0,102.2,0
		c-4.3-6.1-8.1-11.4-13.5-19c19.5,2.4,36,4.4,54.8,6.6c-4-11.4-6.6-18.6-9.5-26.8c35.3,10.5,35.3,10.5,55.3,4.8
		c-7.7-5.9-15.6-12.3-3.3-19.3c-3.8-5-7-9.3-10.2-13.6c23.2,13,29.3-11.2,37-15.7c4.4-10.9,7.2-17.9,10.4-25.6
		c-0.5-6.5-1.2-15.1-2.1-27.6c0.1,0.1-3.1-3.2-6.9-5.7c-12.4-7.9-27.7-12.6-30.3-30.7c-0.4-2.7-6-4.9-9.4-7
		c-53.7-33.7-114.6-48.6-174.5-66.2c-11.2-3.3-23.6-2.6-35.4-3.8c-0.3,1.8-0.6,3.6-0.9,5.4c4.6,3.4,9.3,6.8,14,10.2
		c-9.5,10.4-28.2-4.5-34,13.8c27.9,11.2,27.9,11.2,26,26.3C794.7,319,757.7,299,720,291z M514.8,204.5c-7.3,4.6-12.5,7.9-21.6,13.5
		c17.2,16,31.8,32.4,49.3,44.7c7.7,5.4,21.8,5.4,31.8,3c18.7-4.5,36.3-13.1,54.6-19.1c24.1-7.9,33.6-24.9,25.6-52.2
		c-8,5.3-15.2,10.1-25.1,16.7c-3.2-5.4-5.4-14.7-10.7-17.1c-24.3-11.2-49.2-21.5-74.6-30.2c-9.9-3.4-21.6-2.1-32.5-2.2
		c-5.6,0-15.9,1.4-16,2.6c-0.5,8.5-0.5,17.8,2.7,25.4C500.9,195.3,508.3,198.9,514.8,204.5z"/>
	<path class="st0" d="M208.9,255.6c5.5,0,11.1,0,22.2,0c-13.9-7-23.2-11.7-32.6-16.3c0.2-1.4,0.5-2.8,0.7-4.2
		c5.5,0.5,11.2,0.3,16.5,1.6c41.6,10.1,83,20.9,124.6,30.5c11.6,2.7,24,1.5,35.7,3.9c31.9,6.6,64.5,11.6,95.1,22.2
		c18.2,6.3,31.5,24.3,53.3,26.3c4.3,0.4,9.1,9.8,11.4,15.9c18.5,51,37.7,101.8,53.7,153.6c5.1,16.6,4.4,36.9,0.6,54.2
		c-14.5,64.9-28.9,129.6-30.8,196.5c-0.3,10.7-7.2,21.2-11.8,33.7c-3.6-4.6-5.2-6.6-7.8-10c-6.1,15.2-11.9,29.7-17.7,44.2
		c-1.3-0.1-2.6-0.3-3.9-0.4c-3.3-10.2-6.5-20.3-10.4-32.4c-4.7,20.3-9,38.7-13.3,57.1c-1.9-0.3-3.8-0.6-5.7-0.8
		c-2.1-9.3-4.1-18.5-6.9-31c-6.4,10.7-11.8,19.6-17.5,29.1c-3.4-2.5-6.5-4.7-10-7.3c-6.4,9.7-12.7,19.3-17.3,26.2
		c-15.2-6.9-28.4-15.3-42.8-19.1c-78.8-20.6-159-27.6-240.4-25.5c-36,0.9-72.1-3.9-108.1-6.1c-0.1-1.9-0.3-3.7-0.4-5.6
		c1.8-1.2,3.6-2.3,5.2-3.7c6.4-5.3,12.8-10.8,19.2-16.2c-6.8-5.5-12.9-13.6-20.7-16c-13.9-4.3-28.9-5.2-49.1-8.5
		c17.6-7.4,31.5-11.8,43.9-18.8c11-6.2,30.5-1.9,31.3-23.7c10.5-5.5,29.7,1.4,33.5-20.7c-14.4-1.1-28-2.2-41.7-3.3
		c-0.3-2-0.6-4.1-0.9-6.1c9-3.1,18-6.2,29-10c-6.7-5.5-12.6-10.3-18.9-15.5c17.6-3.7,19.8-8,8.6-15.6c-4.7-3.2-9.8-5.8-18.7-11
		c37.4-13.2,72.1-28.9,107.7-17.1c31.8,10.6,63.7,10.2,95.6,13.3c27.6,2.7,55.5,3,83.2,3.7c11.3,0.3,22.8-0.7,34-2.6
		c3.1-0.5,7.1-6,7.8-9.8c3.7-19.7,7.6-39.6,9.3-59.5c2-23.2,2.8-46.7,2.2-70c-0.1-5.9-6-14.4-11.5-17
		c-52.5-25.3-110.8-23.9-166.6-34.3c-24.6-4.6-40.7-18.6-55.5-34.8c-23.5-25.8-48.6-47.1-85.3-49.6c-2.9-0.2-5.8-0.7-8.5-1.5
		c-1.5-0.4-2.8-1.7-7.3-4.6c21.1,0,39.3,0,57.4,0c0.9-1.4,1.9-2.9,2.8-4.3c-8.1-7.8-16.2-15.6-22.5-21.7c10.8-0.9,23.7-1.9,36.7-2.9
		c-0.1-1.7-0.1-3.4-0.2-5.2c-19.6-10.1-39.5-16.9-62.8-12.6c-9.9,1.8-21-2.5-31.6-7.4c29,6,54.8-4.9,81.9-7.5
		c-0.1-2.2-0.2-4.4-0.4-6.5c-9.3-2-18.7-4.1-28-6.1c0.1-1.9,0.2-3.9,0.3-5.8c4.7-0.4,9.5-1.5,14.2-1.2c24.3,1.3,48.5,3.5,72.8,4.2
		c5.7,0.2,11.6-4.3,17.4-6.6L208.9,255.6z M391.4,635c-2.6-2.2-3-2.7-3.5-2.9c-0.4-0.2-1.2-0.2-1.5,0.1c-2.7,2.1-5.2,6.1-7.9,6.1
		c-17.2,0.1-34.5-0.7-51.7-1c-5-0.1-9.9,0.9-14.9,1.4c0.2,1.8,0.3,3.5,0.5,5.3c23.4,0,46.8,0.3,70.2-0.4
		C385.5,643.7,388.3,638.2,391.4,635z M307.6,631c-0.1,0.4-0.3,0.7-0.4,1.1c17.6,0,35.2,0,52.7,0c-0.1-1.7-0.2-3.4-0.3-5.1
		C342.3,628.3,324.9,629.7,307.6,631z M236.7,258.5c-1.7-1.6-2.6-2.8-2.9-2.6c-0.9,0.3-1.7,1.3-2.5,2
		C232.7,258.1,234.1,258.2,236.7,258.5z"/>
	<path class="st0" d="M775.8,776c37.6-27.8,75.3-55.5,112.9-83.3c5-3.7,9.9-7.5,18.8-14.1c-25.7-2.8-47.2-4.4-68.5-7.6
		c-24.6-3.7-48.9-8.8-73.4-13.1c-13-2.3-24-5.7-13.8-21.5c-6.8-3.3-12.3-6-18.9-9.3c12-18.1,48-7.5,43.5-40.4
		c-7.9-1.7-16.8-3.6-25.9-5.5c2.6-8.4,2.6-8.4,41.4-25.5c-8.8-13.2-8.4-13.5,19.7-16.9c1.1-3.8,1.4-10.1,3.3-10.5
		c8-2.1,16.4-2.7,24.7-3.2c3.7-0.2,7.4,1.5,11.1,1.4c27.7-0.2,55.4-0.8,83.1-0.7c10.5,0,22.5-2.8,27.9,11.6
		c0.8,2.2,8.2,2.4,12.5,2.6c12.5,0.3,25,0.1,37.4,0.1c0.3,1.6,0.6,3.2,1,4.8c-10.1,3.1-20.3,6.3-30.4,9.4c-0.1,0.9-0.2,1.9-0.3,2.8
		c8.4,1.7,16.8,3.4,25.2,5.1c0,0.7,0.1,1.4,0.1,2.1c-14,1.6-28,3.2-44.6,5.1c23.9,7.6,54.6-8.5,65.3,25.7c-8.5,1-17.2,0.3-24.1,3.4
		c-6.1,2.8-10.2,9.9-14.9,14.8c17.3,5.3,35.7,0.9,52.8-10c65.6-41.8,138.1-66.7,212.5-87.1c38-10.4,69.4,1.7,96.7,27.6
		c7.8,7.4,14.8,15.8,23.5,25c-20.1,3.1-39.4,6-58.7,8.9c-0.1,1.5-0.3,3-0.4,4.5c15.5,3.6,31,7.3,49.4,11.6
		c-6.3,4.2-10.2,6.8-16.8,11.2c9.5,0.9,15.8,1.4,22.1,2c0.4,1.2,0.8,2.4,1.2,3.6c-12.9,7.4-25.8,14.8-38.8,22.3c0.3,1,0.7,2.1,1,3.1
		c7,0.5,14,0.9,21,1.4c0.3,1,0.5,2,0.8,3c-20.4,7.3-40.7,14.6-61.1,21.9c-5.1,1.8-10.2,3.6-15.3,5.4c-1.2,0.7-2.5,1.4-3.7,2.1
		c0,0-0.3,0.1-0.3,0.1c-7.5,2-15.1,4-22.6,6c-5.3,1.3-10.5,2.6-15.8,3.9c0.4,1.3,0.7,2.6,1.1,3.9c4.9-0.7,9.9-1.4,14.8-2.1
		c0.1,1.7,0.7,4.8,0.3,5c-23.3,8.6-46.5,17.3-70,25.3c-64.3,21.8-119.4,60.3-175.7,96.5c-36.5,23.4-72.6,47.3-108.8,71.3
		c-5.7,3.8-10.1,9.6-15.9,13c-6.4,3.8-13.6,7.3-20.8,8.3c-12.4,1.8-25,1.6-38.7,2.3c-0.6-4.3-1.4-9.1-2.4-15.6
		c-9.7,8.1-18.2,15.2-26.8,22.3c-1.6-1-3.2-2-4.8-3c1.6-21.8,23.5-35.4,25.1-59c-14.9,12.2-29.7,24.3-44.6,36.5
		c11.1-27.8,31.2-49.8,40.2-77.3c-1.4-0.8-2.7-1.6-4.1-2.4c-7.5,6.6-15.1,13.3-22.6,19.9c0,0,0,0,0,0c4.2-7.4,7.1-16.1,12.8-21.9
		c12.1-12.4,25.8-23.2,38.8-34.7c-1.8-2.2-3.6-4.4-5.4-6.6c-14.5,9.7-29,19.4-43.9,29.4c-2-1.8-5.5-4.9-9.1-8
		C776.1,780.7,776,778.3,775.8,776z"/>
	<path class="st0" d="M1644.6,904c-13.2,7.7-11.7-7.2-18.3-12.2c-5.9,8.2-11.7,16.3-16.6,23.1c-11.6-4.2-22.2-9.8-33.5-11.8
		c-10.5-1.8-11.5-6.9-10.2-15.1c0.5-0.8,1.1-1.7,1.6-2.5c-1.3,0-2.6,0-3.9,0.1c-4.4,2.5-8.8,5-14.7,8.3c0.6-21.3,11.8-45-20.4-53.1
		c11.7-28.9,23.3-56.4,34-84.3c3.4-8.9,4.2-18.8,7.1-28c3.1-9.6,5.9-19.7,11.1-28.2c12.1-19.6,25.6-38.3,38.3-57.2
		c-24.5-11.3-19.4,25.6-41.9,21.4c4.7-6.8,8.7-12.4,11.3-16.1c-56.6-4.2-114.5-8.5-172.5-12.7c0.2-3,0.4-6,0.6-9
		c11.5,1.2,23,3.3,34.6,3.3c10.2,0,24.1,11,30.8-9c-26.8-4.1-52.6-8.1-78.4-12.1c0-0.8,0-1.5-0.1-2.3c7.7-1.6,15.5-3.1,26.9-5.4
		c-8.9-1.7-14.3-2.8-21.5-4.2c3.7-5.8,6.8-10.8,11.1-17.5c-6.1-2.3-11.2-4.2-17.4-6.6c7.3-3.4,14.2-6.5,23.5-10.8
		c-11.6-2.5-20.9-3.7-29.5-6.8c-2.9-1-5.6-7-5.4-10.6c0.1-2.6,5.7-7.7,7.6-7.2c25.5,7.2,45.3-15.2,70.3-15.5
		c-20.3-2.9-40.6-5.8-60.9-8.8c0.1-2.6,0.3-5.2,0.4-7.8c19.7-1.9,39.4-3.6,59-5.7c12-1.3,23.9-3.7,35.8-5c27.4-3,55-4.8,82.4-8.4
		c67.1-8.7,134-18.4,201.1-26.9c6.5-0.8,13.7,4.2,20.6,6.4c6.7,2.1,13.4,5,20.3,5.9c6.5,0.8,13.3-0.6,23.8-1.3
		c-5.4,6.4-8.1,9.5-11.7,13.8c6.8-0.4,12.4-0.7,20.1-1.1c-4.4,5.2-7.8,9.1-11.5,13.5c9,2.4,17.3,4.2,25.3,7
		c8.9,3.1,19.5,4.4,18.4,18.8c-0.2,3.3,7.7,7.2,12.5,11.5c-7.8,8.7-14.6,16.4-23.3,26.2c14-0.7,25.6-1.3,37.3-1.9
		c0.3,2.2,0.7,4.4,1,6.6c-12.3,3.6-24.5,7.1-38.2,11.1c4.2,3.9,7.7,7.3,12.1,11.3c-5.2,2.5-10.1,4.9-16.5,8
		c3.8,3.4,6.9,6.2,10.4,9.5c-8.8,2.4-17,4.7-25.1,6.9c0,1-0.1,2.1-0.1,3.1c8.3,1,16.7,2,29.4,3.6c-64.8,23.9-96.7,74.1-125.7,127
		c-25,45.6-50.1,91.2-75.2,136.8c-11.9,21.6-18.4,26.9-44.8,36.3c-0.2-4.7-0.4-9.1-0.7-13.5c0.4-0.8,0.8-1.6,1.2-2.4
		C1646.1,903.2,1645.3,903.6,1644.6,904z"/>
	<path class="st0" d="M1701.3,410.9c18.2,0,36.4,0,54.6,0c0.1,2.3,0.3,4.7,0.4,7c-28.9,15.4-61.9,1.8-95.6,10.3
		c46.5,2.2,89.3,4.1,132.2,6.1c0.1,1.6,0.1,3.1,0.2,4.7c-17.9,2.3-35.8,6.4-53.7,6.6c-80,0.7-160,2.9-239.8-0.8
		c-39.2-1.8-78.3-13.8-116.6-24c-31.3-8.3-61.5-20.8-93.8-28.6c3-1,6-1.9,14-4.4c-27.1-16.2-48.7-34.7-78.4-39.8
		c-8.8-1.5-25.9,4.1-24.2-11.4c1.9-17.4,16.5-2.9,25.1-4.6c3.2-0.6,6.9,0.5,10.2,1.4c22.6,6.4,45.1,9.4,68.4-4.7
		c-8.1-5-16.4-10-29.5-18c22.2,0,39.5,0,56.7,0c0.2-1.7,0.3-3.4,0.5-5.1c-7.4-2.1-14.8-4.3-22.3-6.2c-23.4-6.1-44.8-16.9-66.8-26.4
		c-44.8-19.3-33.9-15.7-57.9,18.6c-4.6,6.6-8.7,13.5-10.8,16.7c-9.9,0-16.6,0-25.7,0c-3-5.1-7.7-13-13-22c-4.2,1.3-8.5,2.7-14.1,4.5
		c2.4-10.2,6.6-19.2,5.4-27.4c-0.6-3.8-11.8-6-15.2-7.5c-11.6,16.6-20.9,30-31.1,44.5c-18.1-17.3-27.4-4.6-41.1,5.3c0-33,0-66,0-99
		c-1.6-0.3-3.1-0.5-4.7-0.8c-7.4,13.1-14.8,26.2-22.1,39.3c-1.9-0.7-3.9-1.4-5.8-2.1c1.1-21,2.1-41.9,3.4-66.9
		c21.3,26.1,38.2,0.3,58,1.3c3.8,7.2,8,15.3,12.8,24.4c4.8-0.9,9.5-1.8,15.4-2.9c4.2,10.4,8.2,20.4,13.3,33.1
		c4.6-9.5,8.1-16.7,12.5-25.7c2.3,5.5,4,9.4,4.7,11.1c13.3-9.1,26.3-18.5,40.2-26.6c1.9-1.1,10.8,4.2,11.6,7.7
		c3.3,14.5,12.9,20.8,26.8,24.5c-1.8,33.4,29,19.9,45.8,32.2c0.4-18.3,10.2-15.8,20.6-13.5c25.9,5.8,51.8,11.3,77.8,16.7
		c1.9,0.4,4.1-0.8,6.9-4.7c-12.5-3.6-25-7.2-37.6-10.8c0-1.8,0.1-3.5,0.1-5.3c7,0,14.2-1.1,21,0.2c55.1,10.4,109.8,23.7,165.3,31.3
		c55.5,7.7,111.7,10.3,167.6,14.2c28.3,2,56.8,3.9,85,2.4c26.1-1.4,42.8,10,57.5,32c-37.6,0-74,0-110.9,0c1,3.1,1.3,4.9,1.7,5
		c32.4,2.5,64.7,5.5,97.2,6.8c13.3,0.5,21.6,2.1,23.4,18c1.1,9.6,8.1,18.5,13.3,29.6c-0.8,3.1-0.8,10.8-4.4,16
		c-2.7,4-9.8,6.9-15.1,7.2c-39.9,1.9-79.8,3.1-119.7,4.5c-40.6,0-81.3,0-121.9,0c0,2,0,3.9,0,5.9
		C1619.9,410.9,1660.6,410.9,1701.3,410.9z M1586.5,319.5c0.3,1,0.5,2.1,0.8,3.1c32.5,0,64.9,0,97.4,0c0-1,0-2.1,0.1-3.1
		C1651.9,319.5,1619.2,319.5,1586.5,319.5z"/>
	<path class="st0" d="M720,291c37.7,8,74.7,28,116.6,27.6c1.8-15.1,1.8-15.1-26-26.3c5.8-18.2,24.5-3.4,34-13.8
		c-4.7-3.4-9.3-6.8-14-10.2c0.3-1.8,0.6-3.6,0.9-5.4c11.8,1.2,24.2,0.5,35.4,3.8c59.8,17.5,120.8,32.4,174.5,66.2
		c3.4,2.1,9,4.3,9.4,7c2.6,18.1,17.9,22.7,30.3,30.7c3.8,2.4,7,5.8,6.9,5.7c1,12.5,1.6,21.1,2.1,27.6c-3.1,7.7-5.9,14.7-10.4,25.6
		c-7.7,4.6-13.8,28.7-37,15.7c3.2,4.3,6.4,8.6,10.2,13.6c-12.2,7-4.4,13.4,3.3,19.3c-20.1,5.6-20.1,5.6-55.3-4.8
		c2.9,8.2,5.4,15.4,9.5,26.8c-18.8-2.3-35.2-4.3-54.8-6.6c5.4,7.6,9.1,12.9,13.5,19c-34.6,0-68.4,0-102.2,0c0-0.9,0-1.8,0-2.8
		c23.8-1.3,47.7-2.6,71.5-4c0.6-1.6,1.2-3.2,1.9-4.8c-13.7-9.4-27.3-18.8-43-29.6c0,6.8,0,10.8,0,13.4
		c-42.4-25.6-85.1-51.4-127.1-76.7c7.2,0.9,16.7,2.1,26.1,3.3c0.9-1.6,1.7-3.1,2.6-4.7c-14.6-8.7-29.2-17.3-46.2-27.4
		c16.7-1,32.4-2,49.7-3.1c1.8-18.9,18.1-7.4,32-9.1c-4.2-2.7-6.3-4.4-8.8-5.5c-3.1-1.4-6.5-2.3-9.8-3.5c-10.2-3.6-21.8-5.6-22.7-20
		c-0.1-1.8-2.4-4.2-4.3-5.1c-32.4-15.6-61.8-39.8-101-36.8c-8.9,0.7-13.6-1.7-15-11.8c-1.2-8.3-6-16.1-10.4-27.2
		c1.5-27,7.2-57.1,36.1-81.2c2.4,10.3,4.1,17.7,5.7,24.9c21.6-6.2,41.1,10.8,35.7,34.3C735.4,253.6,727,271.5,720,291z M890,471.4
		c1.2,0.8,2.3,1.7,3.5,2.5c-0.4-1.6-0.8-3.2-1.1-4.9c-1.4-0.4-2.8-0.8-4.2-1.2C888.8,469,889.4,470.2,890,471.4z"/>
	<path class="st0" d="M514.8,204.5c-6.5-5.6-13.9-9.2-16.3-14.9c-3.2-7.6-3.2-16.9-2.7-25.4c0.1-1.2,10.4-2.7,16-2.6
		c10.9,0.1,22.5-1.2,32.5,2.2c25.4,8.7,50.3,18.9,74.6,30.2c5.3,2.5,7.5,11.7,10.7,17.1c9.9-6.6,17.1-11.4,25.1-16.7
		c8,27.3-1.5,44.3-25.6,52.2c-18.3,6-36,14.6-54.6,19.1c-10,2.4-24.2,2.4-31.8-3c-17.5-12.3-32.1-28.7-49.3-44.7
		C502.3,212.4,507.5,209.1,514.8,204.5z"/>
	<path class="st0" d="M1701.3,410.9c-40.7,0-81.4,0-122.1,0c0-2,0-3.9,0-5.9c40.6,0,81.3,0,121.9,0
		C1701.1,406.9,1701.2,408.9,1701.3,410.9z"/>
	<path class="st0" d="M1279,667.8c5.1-1.8,10.2-3.6,15.3-5.4c11.5,12.9-8.5,9.3-9.6,16.8C1282.9,675.4,1280.9,671.6,1279,667.8z"/>
	<path class="st0" d="M775.8,776c0.1,2.4,0.3,4.7,0.4,7.1c-6.4,6.1-12.8,12.3-19.2,18.4c-1.4-1.3-2.7-2.6-4.1-3.9
		C760.6,790.4,768.2,783.2,775.8,776z"/>
	<path class="st0" d="M1252.4,681.7c-4.9,0.7-9.9,1.4-14.8,2.1c-0.4-1.3-0.7-2.6-1.1-3.9c5.3-1.3,10.5-2.6,15.8-3.9
		C1252.4,677.9,1252.4,679.8,1252.4,681.7z"/>
	<path class="st0" d="M1275,670c0,0,0.3-0.1,0.3-0.1c0.2,3.1,0.5,6.1,0.7,9.2c-0.8,0-1.5-0.1-2.3-0.1
		C1274.1,676,1274.6,673,1275,670z"/>
	<path class="st0" d="M746.7,809.5c-1.8,1.7-3.6,3.5-5.5,5.2c-0.7-0.6-1.5-1.2-2.2-1.8c1.7-2,3.3-4.1,5-6.1
		C745,807.7,745.8,808.6,746.7,809.5z"/>
	<path class="st0" d="M744.1,806.8c1.9-1.5,3.8-3.1,5.7-4.6c0.6,0.7,1.2,1.5,1.9,2.2c-1.6,1.7-3.3,3.4-4.9,5.2
		C745.8,808.6,745,807.7,744.1,806.8z"/>
	<path class="st0" d="M209.3,255.3c-0.7-0.7-1.3-1.5-2-2.2c0.6-0.1,1.1-0.1,1.7-0.2c0,0.9,0,1.7,0,2.6
		C208.9,255.6,209.3,255.3,209.3,255.3z"/>
	<path class="st0" d="M782.9,824.8c-0.5,0.8-1,1.5-1.6,2.3c-0.2-0.4-0.5-0.9-0.7-1.3C781.4,825.5,782.2,825.2,782.9,824.8
		C782.9,824.9,782.9,824.8,782.9,824.8z"/>
	<path class="st0" d="M391.4,635c-3.1,3.1-5.9,8.6-8.9,8.7c-23.4,0.7-46.8,0.4-70.2,0.4c-0.2-1.8-0.3-3.5-0.5-5.3
		c5-0.5,9.9-1.5,14.9-1.4c17.3,0.2,34.5,1.1,51.7,1c2.6,0,5.2-4,7.9-6.1c0.3-0.3,1.1-0.2,1.5-0.1C388.4,632.4,388.8,632.9,391.4,635
		z"/>
	<path class="st0" d="M307.6,631c17.4-1.3,34.7-2.7,52.1-4c0.1,1.7,0.2,3.4,0.3,5.1c-17.6,0-35.2,0-52.7,0
		C307.3,631.8,307.4,631.4,307.6,631z"/>
	<path class="st0" d="M236.7,258.5c-2.6-0.3-4-0.5-5.4-0.6c0.8-0.7,1.5-1.7,2.5-2C234.2,255.8,235,257,236.7,258.5z"/>
	<path class="st0" d="M1563.7,885.6c1.3,0,2.6,0,3.9-0.1c-0.5,0.8-1.1,1.7-1.6,2.5C1565.2,887.3,1564.4,886.5,1563.7,885.6z"/>
	<path class="st0" d="M1644.6,904c0.8-0.4,1.5-0.9,2.3-1.3c-0.4,0.8-0.8,1.6-1.2,2.4C1645.6,905.1,1644.6,904,1644.6,904z"/>
	<path class="st0" d="M1586.5,319.5c32.7,0,65.5,0,98.2,0c0,1,0,2.1-0.1,3.1c-32.5,0-64.9,0-97.4,0
		C1587,321.5,1586.7,320.5,1586.5,319.5z"/>
	<path class="st0" d="M890,471.4c-0.6-1.2-1.2-2.4-1.8-3.6c1.4,0.4,2.8,0.8,4.2,1.2C891.6,469.8,890.8,470.6,890,471.4z"/>
	<path class="st0" d="M892.4,469c0.4,1.6,0.8,3.2,1.1,4.9c-1.2-0.8-2.3-1.7-3.5-2.5C890.8,470.6,891.6,469.8,892.4,469z"/>
</g>
</svg>
