<?xml version="1.0" encoding="utf-8"?>
<!-- Generator: Adobe Illustrator 25.3.1, SVG Export Plug-In . SVG Version: 6.00 Build 0)  -->
<svg version="1.1" id="Layer_1" xmlns="http://www.w3.org/2000/svg" xmlns:xlink="http://www.w3.org/1999/xlink" x="0px" y="0px"
	 viewBox="0 0 1920 1080" style="enable-background:new 0 0 1920 1080;" xml:space="preserve">
<style type="text/css">
	.st0{fill:none;}
	.st1{font-family:'Roboto-Italic';}
	.st2{font-size:17.0079px;}
	.st3{font-family:'Roboto-Regular';}
	.st4{font-family:'Roboto-Bold';}
	.st5{font-size:28.3465px;}
	.st6{fill:none;stroke:#000000;stroke-width:1.4173;stroke-miterlimit:10;}
	.st7{font-size:26.9291px;}
	.st8{fill:#5CA9CD;}
	.st9{font-size:15.5906px;}
	.st10{font-size:17.8583px;}
	.st11{fill:none;stroke:#5CA9CD;stroke-width:1.4173;stroke-miterlimit:10;}
</style>
<rect x="256" y="216.9" class="st0" width="150.2" height="164.6"/>
<text transform="matrix(1 0 0 1 256.0225 229.6234)"><tspan x="0" y="0" class="st1 st2">Godzilla II: el rey </tspan><tspan x="0" y="21.8" class="st1 st2">de los monstruos</tspan><tspan x="128.9" y="21.8" class="st3 st2"> </tspan><tspan x="0" y="43.7" class="st3 st2">de Legendary Films </tspan><tspan x="0" y="65.5" class="st3 st2">y dirigida por </tspan><tspan x="0" y="87.3" class="st3 st2">Michael </tspan><tspan x="0" y="109.1" class="st3 st2">Dougherty</tspan></text>
<rect x="255.2" y="180.2" class="st0" width="67.6" height="27"/>
<text transform="matrix(1 0 0 1 255.2041 201.4589)" class="st4 st5">2019</text>
<rect x="1540.6" y="328.7" class="st0" width="67.6" height="27"/>
<text transform="matrix(1 0 0 1 1540.6278 349.9261)" class="st4 st5">2014</text>
<rect x="1541.1" y="366.3" class="st0" width="127.6" height="85.7"/>
<text transform="matrix(1 0 0 1 1541.1229 379.1051)"><tspan x="0" y="0" class="st1 st2">Godzilla</tspan><tspan x="59.8" y="0" class="st3 st2"> de </tspan><tspan x="0" y="21.8" class="st3 st2">Legendary Films </tspan><tspan x="0" y="43.7" class="st3 st2">y dirigida por </tspan><tspan x="0" y="65.5" class="st3 st2">Gareth Edwards</tspan></text>
<line class="st6" x1="415.8" y1="72" x2="964.6" y2="72"/>
<line class="st6" x1="1049.8" y1="165.2" x2="1557.2" y2="165.2"/>
<rect x="985.4" y="62.7" class="st0" width="67.6" height="27"/>
<text transform="matrix(1 0 0 1 985.3571 82.8901)" class="st1 st7">119.8</text>
<rect x="995.2" y="153.6" class="st0" width="67.6" height="27"/>
<text transform="matrix(1 0 0 1 995.2474 173.7544)" class="st1 st7">108</text>
<rect x="973.7" y="250.1" class="st0" width="32.6" height="27"/>
<text transform="matrix(1 0 0 1 973.7394 270.2581)" class="st8 st1 st7">93</text>
<rect x="941.2" y="228.7" class="st0" width="152.2" height="13.9"/>
<text transform="matrix(1 0 0 1 941.2416 240.4371)" class="st8 st3 st9">Estatua de la Libertad</text>
<rect x="1006.3" y="256.3" class="st0" width="72.9" height="13.9"/>
<text transform="matrix(1 0 0 1 1006.3109 269.7281)" class="st8 st1 st10">metros</text>
<rect x="990" y="181.8" class="st0" width="72.9" height="13.9"/>
<text transform="matrix(1 0 0 1 989.9567 195.1801)" class="st1 st10">metros</text>
<rect x="990" y="91.3" class="st0" width="72.9" height="13.9"/>
<text transform="matrix(1 0 0 1 989.9567 104.7299)" class="st1 st10">metros</text>
<polyline class="st11" points="1134.5,1000.5 1134.5,969.7 1131.2,967.9 1131.2,963.8 1101.5,965.3 1088.1,934.1 1082.9,928.9 
	1088.5,928.9 1089.2,921.5 1086.6,917.8 1085.9,912.9 1091.1,909.6 1090.4,896.2 1086.3,894.7 1082.9,896.6 1082,901.4 
	1076.9,905.7 1076.9,899.4 1079.4,889.3 1074.9,882.4 1074.9,867.5 1077.5,866.3 1077.4,860.3 1074,859.5 1070.6,808.4 
	1074.7,806.4 1072.9,798.9 1079,794.8 1079.9,788.3 1075,785.5 1074.2,781.8 1078.2,776.8 1077.2,771.6 1070.6,770 1065.6,762.5 
	1065.6,756.7 1068.9,754.7 1069.9,746.2 1059.9,741 1054.3,742.2 1055.4,724.2 1049.1,724.2 1042.3,716.3 1040.9,675.7 1046.4,668 
	1047.1,626.9 1050.6,623.8 1049.1,573 1047.1,570.7 1047.3,565.7 1053.6,562.2 1055.6,550.7 1064.1,555.4 1078.2,532.4 
	1084.7,531.3 1089.9,517.8 1089.2,513.6 1089.2,509 1092.8,502.7 1094.3,497 1067.2,482.5 1048.1,511.8 1047.3,505.8 1040.9,494.8 
	1038.9,472.7 1031,460.7 1029.3,454.4 1029.3,447.1 1031.6,441.4 1031.1,435.8 1030.5,432.8 1030,420.1 1032.4,418 1057,414.1 
	1057,412.5 1031.1,412.9 1031.6,408.4 1051,398.4 1050.3,396.5 1028.1,404.1 1024.1,401.6 1037.5,386.4 1036,385.1 1018.5,398.7 
	1014.5,398.4 1012,377.7 1009.2,377.7 1006.8,397.5 1002,398 984.1,385.7 983.1,386.9 995.7,400.2 992.5,403.7 981.2,400.4 
	979.1,383.5 976.6,368 977.4,356.8 978.3,341.8 974.3,336.1 974.3,333.8 976.2,333.1 975.9,326.6 984.9,323.3 985.5,321.2 
	982.5,320.7 983,316.2 985.7,314.9 985.6,312.7 974.3,312.4 974.3,306 977.4,301.6 977.4,294.2 976.3,291.5 973.7,287.7 
	972.9,280.5 971.2,280 969.9,287.2 967.9,289 965.5,284.9 963.1,286.8 963.1,291.1 962.4,294.4 960.8,298.3 960.8,302.8 
	964.5,306.3 964.5,312.2 954.8,311.9 953.5,313.8 953.5,321.9 955.5,324.5 961.1,325.2 960.8,329.2 962.6,330.4 962.7,332.5 
	957.6,344.2 957.4,347.1 962,358.8 962,374.1 960,388.1 959.3,401.3 961.3,408.8 962.4,413.4 961.5,419.5 952.2,434.1 948.5,441.2 
	948.5,449.1 952.2,454.3 951.3,458.8 956.2,463.1 956.2,473.6 955.1,487.1 954.8,492 958.8,496.5 958.2,521.5 953.6,526.7 
	952.3,531.4 953.7,535.1 957.9,537 965.4,537.5 965,550 958.1,560.4 954.8,565.1 954.8,569.1 957.5,573.3 960,575.9 961.4,586.9 
	962.1,616.9 960,619.4 958.6,622 959.3,626.3 960,628.2 960,637.9 957.9,644.6 958.2,682.4 957.5,687.2 956.6,694.2 955.8,703.4 
	948.5,707.9 942.1,720.2 936.9,720.9 936.9,738.4 923.5,744.7 923.5,752.5 928,757.3 928.3,762.5 923.5,764.4 920.5,770 
	915.3,769.6 915.3,778.5 920.2,782.6 920.2,786.3 913.5,787.1 913.5,791.9 913.5,797.8 917.9,798.6 918.3,803.4 917.2,807.5 
	920.5,809.4 919.5,857.5 915.2,859.7 914.7,865.5 918.5,868.6 918.5,879.6 921,885.4 917.5,886.7 915.4,890 916.7,904.8 
	910.7,905.6 910.7,895 905.6,896 903.6,903.1 903.6,911.6 907.9,911.9 909.4,918.5 905.9,920.7 905.6,925.3 909.7,928.8 
	905.1,936.6 893.3,965.6 862.5,965.8 858.8,969.8 858.8,1002.4 "/>
<g id="FVfjxa.tif">
	
		<image style="overflow:visible;" width="1076" height="761" id="Layer_0" xlink:href="tamaño.png"  transform="matrix(1.2615 0 0 1.2615 279.0506 75.4456)">
	</image>
</g>
</svg>
