<svg xmlns="http://www.w3.org/2000/svg" xmlns:xlink="http://www.w3.org/1999/xlink" viewBox="0 0 1414.57 975.89"><defs><style>.cls-1,.cls-13,.cls-21{fill:none;}.cls-10,.cls-14,.cls-15,.cls-16,.cls-18,.cls-2,.cls-20,.cls-3,.cls-7{isolation:isolate;}.cls-3,.cls-7{font-size:17.01px;}.cls-14,.cls-15,.cls-18,.cls-20,.cls-3{font-family:Roboto-Italic, Roboto;font-style:italic;}.cls-4{letter-spacing:-0.01em;}.cls-5{letter-spacing:-0.01em;}.cls-6{letter-spacing:0em;}.cls-16,.cls-7{font-family:Roboto-Regular, Roboto;}.cls-8{letter-spacing:0.01em;}.cls-9{letter-spacing:0.02em;}.cls-10{font-size:28.35px;font-family:Roboto-Bold, Roboto;font-weight:700;}.cls-11{letter-spacing:0.01em;}.cls-12{letter-spacing:-0.01em;}.cls-13{stroke:#000;}.cls-13,.cls-21{stroke-miterlimit:10;stroke-width:1.42px;}.cls-14,.cls-15{font-size:26.93px;}.cls-15,.cls-16,.cls-18{fill:#5ca9cd;}.cls-16{font-size:15.59px;}.cls-17{letter-spacing:0.02em;}.cls-18,.cls-20{font-size:17.86px;}.cls-19{letter-spacing:-0.01em;}.cls-21{stroke:#5ca9cd;}</style></defs><g id="Layer_2" data-name="Layer 2"><g id="Layer_1-2" data-name="Layer 1"><rect class="cls-1" x="0.8" y="157.05" width="150.2" height="164.6"/><g class="cls-2"><text class="cls-3" transform="translate(0.82 169.77)">Godzilla II: el <tspan class="cls-4" x="98.4" y="0">r</tspan><tspan class="cls-5" x="103.91" y="0">e</tspan><tspan class="cls-6" x="112.62" y="0">y </tspan></text><text class="cls-3" transform="translate(0.82 191.57)">de los monstruos</text><text class="cls-7" transform="translate(129.72 191.57)"> </text><text class="cls-7" transform="translate(0.82 213.47)">de Legenda<tspan class="cls-8" x="87.75" y="0">r</tspan><tspan x="93.66" y="0">y Films </tspan></text><text class="cls-7" transform="translate(0.82 235.27)">y dirigida por </text><text class="cls-7" transform="translate(0.82 257.07)">Michael </text><text class="cls-7" transform="translate(0.82 278.87)">Doughe<tspan class="cls-9" x="58.15" y="0">r</tspan><tspan x="64.32" y="0">ty</tspan></text></g><rect class="cls-1" y="120.35" width="67.6" height="27"/><text class="cls-10" transform="translate(0 141.61)">2019</text><rect class="cls-1" x="1285.4" y="268.85" width="67.6" height="27"/><text class="cls-10" transform="translate(1285.43 290.07)">2014</text><rect class="cls-1" x="1285.9" y="306.45" width="127.6" height="85.7"/><g class="cls-2"><text class="cls-3" transform="translate(1285.92 319.25)">Godzilla</text><text class="cls-7" transform="translate(1345.72 319.25)"><tspan xml:space="preserve"> de </tspan></text><text class="cls-7" transform="translate(1285.92 341.05)">Legenda<tspan class="cls-11" x="64.94" y="0">r</tspan><tspan x="70.85" y="0">y Films </tspan></text><text class="cls-7" transform="translate(1285.92 362.95)">y dirigida por </text><text class="cls-7" transform="translate(1285.92 384.75)">Ga<tspan class="cls-12" x="20.84" y="0">r</tspan><tspan x="26.43" y="0">eth </tspan><tspan class="cls-12" x="54.58" y="0">E</tspan><tspan x="64.09" y="0">dwa</tspan><tspan class="cls-12" x="95.71" y="0">r</tspan><tspan x="101.31" y="0">ds</tspan></text></g><line class="cls-13" x1="160.6" y1="12.15" x2="709.4" y2="12.15"/><line class="cls-13" x1="794.6" y1="105.35" x2="1302" y2="105.35"/><rect class="cls-1" x="730.2" y="2.85" width="67.6" height="27"/><text class="cls-14" transform="translate(730.16 23.04)">119.8</text><rect class="cls-1" x="740" y="93.75" width="67.6" height="27"/><text class="cls-14" transform="translate(740.05 113.9)">108</text><rect class="cls-1" x="718.5" y="190.25" width="32.6" height="27"/><text class="cls-15" transform="translate(718.54 210.41)">93</text><rect class="cls-1" x="686" y="168.85" width="152.2" height="13.9"/><text class="cls-16" transform="translate(686.04 180.58)">Estatua de la Libe<tspan class="cls-17" x="122.71" y="0">r</tspan><tspan x="128.37" y="0">tad</tspan></text><rect class="cls-1" x="751.1" y="196.45" width="72.9" height="13.9"/><text class="cls-18" transform="translate(751.11 209.88)">met<tspan class="cls-19" x="30.28" y="0">r</tspan><tspan x="36.05" y="0">os</tspan></text><rect class="cls-1" x="734.8" y="121.95" width="72.9" height="13.9"/><text class="cls-20" transform="translate(734.76 135.33)">met<tspan class="cls-19" x="30.28" y="0">r</tspan><tspan x="36.05" y="0">os</tspan></text><rect class="cls-1" x="734.8" y="31.45" width="72.9" height="13.9"/><text class="cls-20" transform="translate(734.76 44.88)">met<tspan class="cls-19" x="30.28" y="0">r</tspan><tspan x="36.05" y="0">os</tspan></text><polyline class="cls-21" points="879.3 940.65 879.3 909.85 876 908.05 876 903.95 846.3 905.45 832.9 874.25 827.7 869.05 833.3 869.05 834 861.65 831.4 857.95 830.7 853.05 835.9 849.75 835.2 836.35 831.1 834.85 827.7 836.75 826.8 841.55 821.7 845.85 821.7 839.55 824.2 829.45 819.7 822.55 819.7 807.65 822.3 806.45 822.2 800.45 818.8 799.65 815.4 748.55 819.5 746.55 817.7 739.05 823.8 734.95 824.7 728.45 819.8 725.65 819 721.95 823 716.95 822 711.75 815.4 710.15 810.4 702.65 810.4 696.85 813.7 694.85 814.7 686.35 804.7 681.15 799.1 682.35 800.2 664.35 793.9 664.35 787.1 656.45 785.7 615.85 791.2 608.15 791.9 567.05 795.4 563.95 793.9 513.15 791.9 510.85 792.1 505.85 798.4 502.35 800.4 490.85 808.9 495.55 823 472.55 829.5 471.45 834.7 457.95 834 453.75 834 449.15 837.6 442.85 839.1 437.15 812 422.65 792.9 451.95 792.1 445.95 785.7 434.95 783.7 412.85 775.8 400.85 774.1 394.55 774.1 387.25 776.4 381.55 775.9 375.95 775.3 372.95 774.8 360.25 777.2 358.15 801.8 354.25 801.8 352.65 775.9 353.05 776.4 348.55 795.8 338.55 795.1 336.65 772.9 344.25 768.9 341.75 782.3 326.55 780.8 325.25 763.3 338.85 759.3 338.55 756.8 317.85 754 317.85 751.6 337.65 746.8 338.15 728.9 325.85 727.9 327.05 740.5 340.35 737.3 343.85 726 340.55 723.9 323.65 721.4 308.15 722.2 296.95 723.1 281.95 719.1 276.25 719.1 273.95 721 273.25 720.7 266.75 729.7 263.45 730.3 261.35 727.3 260.85 727.8 256.35 730.5 255.05 730.4 252.85 719.1 252.55 719.1 246.15 722.2 241.75 722.2 234.35 721.1 231.65 718.5 227.85 717.7 220.65 716 220.15 714.7 227.35 712.7 229.15 710.3 225.05 707.9 226.95 707.9 231.25 707.2 234.55 705.6 238.45 705.6 242.95 709.3 246.45 709.3 252.35 699.6 252.05 698.3 253.95 698.3 262.05 700.3 264.65 705.9 265.35 705.6 269.35 707.4 270.55 707.5 272.65 702.4 284.35 702.2 287.25 706.8 298.95 706.8 314.25 704.8 328.25 704.1 341.45 706.1 348.95 707.2 353.55 706.3 359.65 697 374.25 693.3 381.35 693.3 389.25 697 394.45 696.1 398.95 701 403.25 701 413.75 699.9 427.25 699.6 432.15 703.6 436.65 703 461.65 698.4 466.85 697.1 471.55 698.5 475.25 702.7 477.15 710.2 477.65 709.8 490.15 702.9 500.55 699.6 505.25 699.6 509.25 702.3 513.45 704.8 516.05 706.2 527.05 706.9 557.05 704.8 559.55 703.4 562.15 704.1 566.45 704.8 568.35 704.8 578.05 702.7 584.75 703 622.55 702.3 627.35 701.4 634.35 700.6 643.55 693.3 648.05 686.9 660.35 681.7 661.05 681.7 678.55 668.3 684.85 668.3 692.65 672.8 697.45 673.1 702.65 668.3 704.55 665.3 710.15 660.1 709.75 660.1 718.65 665 722.75 665 726.45 658.3 727.25 658.3 732.05 658.3 737.95 662.7 738.75 663.1 743.55 662 747.65 665.3 749.55 664.3 797.65 660 799.85 659.5 805.65 663.3 808.75 663.3 819.75 665.8 825.55 662.3 826.85 660.2 830.15 661.5 844.95 655.5 845.75 655.5 835.15 650.4 836.15 648.4 843.25 648.4 851.75 652.7 852.05 654.2 858.65 650.7 860.85 650.4 865.45 654.5 868.95 649.9 876.75 638.1 905.75 607.3 905.95 603.6 909.95 603.6 942.55"/><g id="FVfjxa.tif"><image id="Layer_0" data-name="Layer 0" class="cls-2" width="1075" height="761" transform="translate(24.06 15.3) scale(1.26)" xlink:href="grow.png"/></g></g></g></svg>